<svg width="98" height="30" viewBox="0 0 98 30" fill="none" xmlns="http://www.w3.org/2000/svg">
<g clip-path="url(#clip0_1_2683)">
<path fill-rule="evenodd" clip-rule="evenodd" d="M60.6404 23.461C55.007 27.7251 46.8417 30.0001 39.8116 30.0001C29.9541 30.0001 21.0799 26.2561 14.3662 20.029C13.8388 19.5393 14.3114 18.872 14.9444 19.2533C22.1897 23.5824 31.1483 26.1867 40.4023 26.1867C46.6434 26.1867 53.509 24.8607 59.8218 22.109C60.7754 21.693 61.573 22.7504 60.6404 23.461Z" fill="#FF9900"/>
<path fill-rule="evenodd" clip-rule="evenodd" d="M62.9826 20.7094C62.2653 19.7647 58.2227 20.2631 56.4082 20.4841C55.8554 20.5534 55.771 20.0594 56.269 19.704C59.4887 17.377 64.7718 18.0487 65.3879 18.8287C66.004 19.613 65.2275 25.0514 62.202 27.6471C61.7378 28.0458 61.2947 27.8335 61.5015 27.3048C62.1809 25.5628 63.7042 21.6584 62.9826 20.7094Z" fill="#FF9900"/>
<path fill-rule="evenodd" clip-rule="evenodd" d="M56.5347 3.27617V1.01414C56.5347 0.671807 56.7879 0.442139 57.0917 0.442139H66.9533C67.2698 0.442139 67.523 0.676141 67.523 1.01414V2.95116C67.5188 3.27617 67.2529 3.70084 66.7803 4.37251L61.6702 11.8649C63.5691 11.8173 65.5735 12.1076 67.2951 13.1043C67.6834 13.3296 67.7889 13.6589 67.8184 13.9839V16.3976C67.8184 16.727 67.4639 17.1126 67.0926 16.9133C64.0586 15.2796 60.0287 15.102 56.6739 16.9306C56.3321 17.1213 55.9734 16.74 55.9734 16.4106V14.1183C55.9734 13.7499 55.9777 13.1216 56.3363 12.5626L62.2567 3.84384H57.1044C56.7879 3.84384 56.5347 3.61417 56.5347 3.27617Z" fill="#1D1E25"/>
<path fill-rule="evenodd" clip-rule="evenodd" d="M20.5608 17.39H17.5606C17.2736 17.3683 17.0458 17.1473 17.0247 16.8656V1.05314C17.0247 0.736803 17.2821 0.485465 17.6028 0.485465H20.4005C20.6917 0.498457 20.9237 0.728134 20.9448 1.01414V3.08116H20.9997C21.7297 1.08347 23.1012 0.151794 24.9494 0.151794C26.8272 0.151794 28.0003 1.08347 28.8443 3.08116C29.5701 1.08347 31.22 0.151794 32.9881 0.151794C34.2456 0.151794 35.6213 0.6848 36.461 1.88081C37.4105 3.21116 37.2163 5.14384 37.2163 6.8382L37.2121 16.818C37.2121 17.1343 36.9547 17.39 36.634 17.39H33.638C33.3384 17.3683 33.0978 17.1213 33.0978 16.818V8.43721C33.0978 7.76987 33.1569 6.10586 33.0134 5.47318C32.7898 4.41151 32.1188 4.1125 31.2496 4.1125C30.5238 4.1125 29.7642 4.61084 29.4562 5.40818C29.1481 6.20552 29.1776 7.5402 29.1776 8.43721V16.818C29.1776 17.1343 28.9202 17.39 28.5995 17.39H25.6035C25.2997 17.3683 25.0634 17.1213 25.0634 16.818L25.0591 8.43721C25.0591 6.67353 25.3419 4.07783 23.2109 4.07783C21.0546 4.07783 21.139 6.60852 21.139 8.43721V16.818C21.139 17.1343 20.8815 17.39 20.5608 17.39" fill="#1D1E25"/>
<path fill-rule="evenodd" clip-rule="evenodd" d="M76.013 0.151794C80.4649 0.151794 82.8744 4.07784 82.8744 9.06989C82.8744 13.8929 80.2117 17.7193 76.013 17.7193C71.6413 17.7193 69.2614 13.7933 69.2614 8.90089C69.2614 3.97817 71.6709 0.151794 76.013 0.151794ZM76.0383 3.38016C73.8272 3.38016 73.6879 6.47419 73.6879 8.40255C73.6879 10.3352 73.6584 14.4606 76.013 14.4606C78.3381 14.4606 78.4478 11.1326 78.4478 9.10455C78.4478 7.76987 78.393 6.17519 78.0005 4.90984C77.663 3.80917 76.992 3.38016 76.0383 3.38016Z" fill="#1D1E25"/>
<path fill-rule="evenodd" clip-rule="evenodd" d="M88.6471 17.39H85.6595C85.3599 17.3683 85.1194 17.1213 85.1194 16.818L85.1152 1.00114C85.1405 0.7108 85.3895 0.485465 85.6933 0.485465H88.4741C88.7357 0.498457 88.951 0.680467 89.01 0.92747V3.34549H89.0649C89.9046 1.18314 91.0819 0.151794 93.1539 0.151794C94.5 0.151794 95.8123 0.650134 96.6563 2.01515C97.4412 3.28049 97.4412 5.40818 97.4412 6.93786V16.8916C97.4074 17.169 97.1584 17.39 96.8631 17.39H93.8543C93.5801 17.3683 93.3522 17.1603 93.3227 16.8916V8.30288C93.3227 6.57386 93.5168 4.04317 91.4448 4.04317C90.7148 4.04317 90.0439 4.54584 89.7105 5.30851C89.2885 6.27486 89.2337 7.23687 89.2337 8.30288V16.818C89.2295 17.1343 88.9678 17.39 88.6471 17.39" fill="#1D1E25"/>
<path fill-rule="evenodd" clip-rule="evenodd" d="M48.6732 9.83689C48.6732 11.0372 48.7027 12.0382 48.1119 13.1043C47.6351 13.9709 46.8755 14.5039 46.0358 14.5039C44.8838 14.5039 44.2086 13.6026 44.2086 12.2723C44.2086 9.64622 46.5 9.16955 48.6732 9.16955V9.83689ZM51.6988 17.3466C51.5004 17.5286 51.2135 17.5416 50.9898 17.4203C49.994 16.571 49.8125 16.1766 49.2682 15.3663C47.6224 17.091 46.4536 17.6066 44.3226 17.6066C41.7949 17.6066 39.8327 16.0076 39.8327 12.8053C39.8327 10.3049 41.1493 8.60188 43.0313 7.76987C44.6601 7.03319 46.9346 6.9032 48.6732 6.69953V6.30086C48.6732 5.56851 48.728 4.70184 48.306 4.06917C47.9431 3.50149 47.2427 3.26749 46.6223 3.26749C45.4788 3.26749 44.4618 3.86983 44.2128 5.11784C44.1622 5.39518 43.9639 5.66818 43.6896 5.68118L40.7822 5.36051C40.5374 5.30418 40.2631 5.10051 40.3349 4.71484C41.0016 1.09214 44.1917 0.00012207 47.0443 0.00012207C48.5044 0.00012207 50.4117 0.398794 51.5637 1.53414C53.0238 2.93382 52.8845 4.80151 52.8845 6.83386V11.6352C52.8845 13.0783 53.4668 13.7109 54.0154 14.4909C54.2053 14.7683 54.2475 15.1019 54.0027 15.3099C53.3909 15.8343 52.3022 16.8093 51.703 17.3553L51.6987 17.3466" fill="#1D1E25"/>
<path fill-rule="evenodd" clip-rule="evenodd" d="M9.34046 9.83713C9.34046 11.0375 9.36999 12.0385 8.77922 13.1045C8.30238 13.9712 7.54704 14.5042 6.70309 14.5042C5.55108 14.5042 4.88014 13.6028 4.88014 12.2725C4.88014 9.64647 7.17148 9.1698 9.34046 9.1698V9.83713ZM12.366 17.3469C12.1677 17.5289 11.8808 17.5419 11.6571 17.4205C10.6612 16.5712 10.484 16.1769 9.93544 15.3665C8.28973 17.0912 7.12507 17.6069 4.98985 17.6069C2.46642 17.6069 0.5 16.0079 0.5 12.8055C0.5 10.3051 1.82079 8.60212 3.6986 7.77011C5.32744 7.03344 7.6019 6.90344 9.34046 6.69977V6.3011C9.34046 5.56876 9.39531 4.70208 8.97755 4.06941C8.61043 3.50174 7.90995 3.26773 7.29386 3.26773C6.1503 3.26773 5.12911 3.87007 4.88014 5.11808C4.8295 5.39542 4.63117 5.66843 4.36111 5.68143L1.44945 5.36075C1.2047 5.30442 0.934637 5.10075 1.00215 4.71508C1.6731 1.09238 4.85904 0.000366211 7.71162 0.000366211C9.17166 0.000366211 11.079 0.399038 12.231 1.53438C13.6911 2.93406 13.5518 4.80175 13.5518 6.8341V11.6355C13.5518 13.0785 14.1341 13.7112 14.6827 14.4912C14.8768 14.7685 14.919 15.1022 14.6743 15.3102C14.0624 15.8345 12.9737 16.8095 12.3745 17.3555L12.366 17.3469" fill="#1D1E25"/>
</g>
<defs>
<clipPath id="clip0_1_2683">
<rect width="96.9412" height="30" fill="white" transform="translate(0.5 0.00012207)"/>
</clipPath>
</defs>
</svg>
