<svg width="40" height="40" viewBox="0 0 40 40" fill="none" xmlns="http://www.w3.org/2000/svg">
<path d="M16.0606 22.2727C15.4749 21.6869 14.5251 21.6869 13.9393 22.2727C13.3535 22.8585 13.3535 23.8082 13.9393 24.394L16.0606 22.2727ZM18.3333 26.6667L17.2727 27.7273C17.8584 28.3131 18.8082 28.3131 19.394 27.7273L18.3333 26.6667ZM26.0606 21.0607C26.6464 20.4749 26.6464 19.5251 26.0606 18.9393C25.4749 18.3536 24.5251 18.3536 23.9393 18.9393L26.0606 21.0607ZM31.6666 11.6667H30.1666V31.6667H31.6666H33.1666V11.6667H31.6666ZM28.3333 35V33.5H11.6666V35V36.5H28.3333V35ZM8.33331 31.6667H9.83331V11.6667H8.33331H6.83331V31.6667H8.33331ZM11.6666 8.33333V9.83333H15V8.33333V6.83333H11.6666V8.33333ZM25 8.33333V9.83333H28.3333V8.33333V6.83333H25V8.33333ZM11.6666 35V33.5C10.6541 33.5 9.83331 32.6792 9.83331 31.6667H8.33331H6.83331C6.83331 34.336 8.99727 36.5 11.6666 36.5V35ZM31.6666 31.6667H30.1666C30.1666 32.6792 29.3458 33.5 28.3333 33.5V35V36.5C31.0027 36.5 33.1666 34.336 33.1666 31.6667H31.6666ZM31.6666 11.6667H33.1666C33.1666 8.99729 31.0027 6.83333 28.3333 6.83333V8.33333V9.83333C29.3458 9.83333 30.1666 10.6541 30.1666 11.6667H31.6666ZM8.33331 11.6667H9.83331C9.83331 10.6541 10.6541 9.83333 11.6666 9.83333V8.33333V6.83333C8.99727 6.83333 6.83331 8.99729 6.83331 11.6667H8.33331ZM15 23.3333L13.9393 24.394L17.2727 27.7273L18.3333 26.6667L19.394 25.606L16.0606 22.2727L15 23.3333ZM18.3333 26.6667L19.394 27.7273L26.0606 21.0607L25 20L23.9393 18.9393L17.2727 25.606L18.3333 26.6667ZM18.3333 5V6.5H21.6666V5V3.5H18.3333V5ZM21.6666 11.6667V10.1667H18.3333V11.6667V13.1667H21.6666V11.6667ZM18.3333 11.6667V10.1667C17.3208 10.1667 16.5 9.34586 16.5 8.33333H15H13.5C13.5 11.0027 15.6639 13.1667 18.3333 13.1667V11.6667ZM25 8.33333H23.5C23.5 9.34586 22.6792 10.1667 21.6666 10.1667V11.6667V13.1667C24.336 13.1667 26.5 11.0027 26.5 8.33333H25ZM21.6666 5V6.5C22.6792 6.5 23.5 7.32081 23.5 8.33333H25H26.5C26.5 5.66396 24.336 3.5 21.6666 3.5V5ZM18.3333 5V3.5C15.6639 3.5 13.5 5.66396 13.5 8.33333H15H16.5C16.5 7.32081 17.3208 6.5 18.3333 6.5V5Z" fill="white"/>
</svg>
