<svg width="40" height="40" viewBox="0 0 40 40" fill="none" xmlns="http://www.w3.org/2000/svg">
<path d="M15 8.33333H11.6667C9.82576 8.33333 8.33337 9.82572 8.33337 11.6667V31.6667C8.33337 33.5076 9.82576 35 11.6667 35H28.3334C30.1743 35 31.6667 33.5076 31.6667 31.6667V11.6667C31.6667 9.82572 30.1743 8.33333 28.3334 8.33333H25M15 8.33333C15 10.1743 16.4924 11.6667 18.3334 11.6667H21.6667C23.5077 11.6667 25 10.1743 25 8.33333M15 8.33333C15 6.49238 16.4924 5 18.3334 5H21.6667C23.5077 5 25 6.49238 25 8.33333M20 20H25M20 26.6667H25M15 20H15.0167M15 26.6667H15.0167" stroke="white" stroke-width="3" stroke-linecap="round"/>
</svg>
