<svg width="115" height="26" viewBox="0 0 115 26" fill="none" xmlns="http://www.w3.org/2000/svg">
<g clip-path="url(#clip0_1_2702)">
<path d="M40.6186 14.8519L39.9342 16.7792H39.8772C39.7632 16.3446 39.554 15.6833 39.2118 14.8897L35.5428 5.72542H31.9498V20.3315H34.3261V11.3184C34.3261 10.7516 34.3261 10.1091 34.3071 9.31554C34.2881 8.91874 34.2501 8.61641 34.2311 8.38967H34.2881C34.4022 8.95653 34.5353 9.37222 34.6303 9.63676L39.0407 20.2937H40.7137L45.0861 9.54228C45.1811 9.29664 45.2762 8.80536 45.3713 8.38967H45.4283C45.3713 9.4667 45.3332 10.4304 45.3142 11.0161V20.2748H47.8426V5.68763H44.3827L40.6186 14.8519ZM50.2379 9.80682H52.7093V20.2748H50.2379V9.80682ZM51.4926 5.38531C51.0744 5.38531 50.7322 5.53647 50.4471 5.801C50.1619 6.06554 50.0098 6.40565 50.0098 6.82135C50.0098 7.21815 50.1619 7.55827 50.4471 7.8228C50.7322 8.08734 51.0744 8.21961 51.4926 8.21961C51.9109 8.21961 52.2721 8.06844 52.5382 7.8228C52.8234 7.55827 52.9755 7.21815 52.9755 6.82135C52.9755 6.42455 52.8234 6.08443 52.5382 5.801C52.2911 5.53647 51.9299 5.38531 51.4926 5.38531ZM61.4732 9.71234C61.0169 9.61786 60.5416 9.56118 60.0854 9.56118C58.9638 9.56118 57.9372 9.80682 57.0817 10.2981C56.2263 10.7894 55.5419 11.4696 55.1046 12.3199C54.6484 13.1891 54.4203 14.1905 54.4203 15.3432C54.4203 16.3446 54.6484 17.2327 55.0856 18.0452C55.5229 18.8388 56.1312 19.4812 56.9487 19.9158C57.7281 20.3504 58.6406 20.5772 59.6672 20.5772C60.8458 20.5772 61.8534 20.3315 62.6518 19.878L62.6708 19.8591V17.5917L62.5758 17.6673C62.2146 17.9318 61.7963 18.1586 61.3781 18.2908C60.9409 18.442 60.5416 18.5176 60.1995 18.5176C59.2109 18.5176 58.4315 18.2341 57.8802 17.6106C57.3099 17.0059 57.0247 16.1746 57.0247 15.1353C57.0247 14.0583 57.3099 13.208 57.8992 12.5844C58.4885 11.9609 59.2679 11.6397 60.2185 11.6397C61.0169 11.6397 61.8344 11.9042 62.5758 12.4333L62.6708 12.5089V10.1091L62.6518 10.0902C62.3286 9.95798 61.9674 9.80682 61.4732 9.71234ZM69.6287 9.63676C69.0203 9.63676 68.45 9.82571 67.9557 10.2225C67.5375 10.5626 67.2524 11.0539 67.0052 11.6397H66.9862V9.80682H64.5148V20.2748H66.9862V14.9275C66.9862 14.0205 67.1763 13.2647 67.5945 12.7167C68.0128 12.1498 68.5451 11.8664 69.1914 11.8664C69.4196 11.8664 69.6477 11.9231 69.9328 11.9609C70.199 12.0365 70.3891 12.112 70.5222 12.2065L70.6172 12.2821V9.82571L70.5602 9.80682C70.3891 9.69344 70.0469 9.63676 69.6287 9.63676ZM76.3584 9.58007C74.6284 9.58007 73.2407 10.0902 72.2711 11.0917C71.2826 12.0932 70.8073 13.4725 70.8073 15.2109C70.8073 16.8359 71.3016 18.1586 72.2521 19.1222C73.2027 20.067 74.4954 20.5583 76.1113 20.5583C77.8032 20.5583 79.1529 20.0481 80.1225 19.0277C81.111 18.0074 81.5863 16.6469 81.5863 14.9652C81.5863 13.3025 81.13 11.9798 80.1985 11.0161C79.305 10.0525 77.9933 9.58007 76.3584 9.58007ZM78.3355 17.6295C77.8792 18.2152 77.1568 18.4987 76.2633 18.4987C75.3699 18.4987 74.6474 18.2152 74.1342 17.5917C73.6209 17.0059 73.3737 16.1557 73.3737 15.0786C73.3737 13.9638 73.6399 13.1135 74.1342 12.5089C74.6474 11.9042 75.3508 11.6019 76.2443 11.6019C77.1188 11.6019 77.8032 11.8853 78.2975 12.4711C78.7917 13.0568 79.0579 13.9071 79.0579 15.0219C79.0199 16.1557 78.8108 17.0437 78.3355 17.6295ZM87.0993 14.1527C86.3199 13.8315 85.8256 13.5859 85.5975 13.378C85.4074 13.1891 85.3123 12.9245 85.3123 12.5844C85.3123 12.301 85.4264 12.0176 85.7116 11.8286C85.9967 11.6397 86.3199 11.5452 86.7952 11.5452C87.2134 11.5452 87.6506 11.6208 88.0689 11.7341C88.4871 11.8475 88.8673 12.0176 89.1715 12.2443L89.2665 12.3199V10.0147L89.2095 9.99577C88.9243 9.8824 88.5441 9.76903 88.0879 9.67455C87.6316 9.59897 87.2134 9.56118 86.8712 9.56118C85.6926 9.56118 84.723 9.84461 83.9626 10.4682C83.2022 11.0539 82.841 11.8475 82.841 12.7734C82.841 13.2647 82.917 13.6993 83.0881 14.0583C83.2592 14.4173 83.5064 14.7574 83.8485 15.0408C84.1907 15.3054 84.685 15.6077 85.3694 15.8911C85.9397 16.1368 86.3769 16.3257 86.6431 16.4769C86.9092 16.628 87.0803 16.7981 87.2134 16.9304C87.3085 17.0815 87.3655 17.2705 87.3655 17.5161C87.3655 18.2152 86.8332 18.5554 85.7496 18.5554C85.3314 18.5554 84.8941 18.4798 84.3808 18.3097C83.8675 18.1397 83.3923 17.894 82.9931 17.6106L82.898 17.535V19.9347L82.955 19.9536C83.3162 20.1237 83.7535 20.237 84.2858 20.3693C84.8181 20.4638 85.2933 20.5394 85.7116 20.5394C86.9853 20.5394 88.0309 20.2559 88.7723 19.6324C89.5327 19.0277 89.9319 18.253 89.9319 17.2516C89.9319 16.5525 89.7418 15.9289 89.3236 15.4565C88.7723 15.003 88.0879 14.5307 87.0993 14.1527ZM96.4525 9.58007C94.7226 9.58007 93.3348 10.0902 92.3652 11.0917C91.3957 12.0932 90.9014 13.4725 90.9014 15.2109C90.9014 16.8359 91.3957 18.1586 92.3462 19.1222C93.2968 20.067 94.5895 20.5583 96.2054 20.5583C97.8973 20.5583 99.2471 20.0481 100.217 19.0277C101.205 18.0074 101.68 16.6469 101.68 14.9652C101.68 13.3025 101.224 11.9798 100.293 11.0161C99.3991 10.0525 98.0874 9.58007 96.4525 9.58007ZM98.4106 17.6295C97.9543 18.2152 97.2319 18.4987 96.3384 18.4987C95.4259 18.4987 94.7226 18.2152 94.2093 17.5917C93.696 17.0059 93.4489 16.1557 93.4489 15.0786C93.4489 13.9638 93.715 13.1135 94.2093 12.5089C94.7226 11.9042 95.4259 11.6019 96.3194 11.6019C97.1749 11.6019 97.8783 11.8853 98.3726 12.4711C98.8668 13.0568 99.133 13.9071 99.133 15.0219C99.133 16.1557 98.8859 17.0437 98.4106 17.6295ZM114.893 11.8286V9.80682H112.402V6.70798L112.326 6.72687L109.969 7.426L109.912 7.4449V9.80682H106.186V8.48414C106.186 7.87949 106.338 7.40711 106.604 7.10478C106.87 6.80246 107.27 6.65129 107.764 6.65129C108.106 6.65129 108.467 6.72687 108.866 6.89693L108.961 6.95362V4.81844L108.904 4.79955C108.562 4.68618 108.106 4.6106 107.517 4.6106C106.775 4.6106 106.129 4.78065 105.54 5.06408C104.95 5.3853 104.513 5.8199 104.19 6.40565C103.867 6.97251 103.696 7.61496 103.696 8.35188V9.80682H101.966V11.8097H103.696V20.2748H106.186V11.8286H109.912V17.2138C109.912 19.4246 110.958 20.5394 113.049 20.5394C113.391 20.5394 113.752 20.4827 114.094 20.426C114.455 20.3504 114.722 20.2559 114.874 20.1804L114.893 20.1615V18.1397L114.798 18.2152C114.646 18.3097 114.513 18.3853 114.284 18.442C114.094 18.4987 113.923 18.5176 113.79 18.5176C113.296 18.5176 112.954 18.4042 112.707 18.1208C112.478 17.8562 112.364 17.4216 112.364 16.7792V11.8286H114.893Z" fill="#737373"/>
<path d="M0.0882263 0.812622H11.7417V12.3955H0.0882263V0.812622Z" fill="#F25022"/>
<path d="M12.9583 0.812622H24.6117V12.3955H12.9583V0.812622Z" fill="#7FBA00"/>
<path d="M0.0882263 13.6048H11.7417V25.1876H0.0882263V13.6048Z" fill="#00A4EF"/>
<path d="M12.9583 13.6048H24.6117V25.1876H12.9583V13.6048Z" fill="#FFB900"/>
</g>
<defs>
<clipPath id="clip0_1_2702">
<rect width="114.824" height="24.375" fill="white" transform="translate(0.0882263 0.812622)"/>
</clipPath>
</defs>
</svg>
