<svg width="18" height="19" viewBox="0 0 18 19" fill="none" xmlns="http://www.w3.org/2000/svg">
<path d="M3.66835 8.03015C2.86684 8.03015 2.21106 8.68593 2.21106 9.48744C2.21106 10.2889 2.86684 10.9447 3.66835 10.9447C4.46985 10.9447 5.12563 10.2889 5.12563 9.48744C5.12563 8.68593 4.46985 8.03015 3.66835 8.03015Z" fill="#7E8492"/>
<path d="M13.8694 8.03015C13.0679 8.03015 12.4121 8.68593 12.4121 9.48744C12.4121 10.2889 13.0679 10.9447 13.8694 10.9447C14.6709 10.9447 15.3267 10.2889 15.3267 9.48744C15.3267 8.68593 14.6709 8.03015 13.8694 8.03015Z" fill="#7E8492"/>
<path d="M8.76887 8.03015C7.96736 8.03015 7.31158 8.68593 7.31158 9.48744C7.31158 10.2889 7.96736 10.9447 8.76887 10.9447C9.57038 10.9447 10.2262 10.2889 10.2262 9.48744C10.2262 8.68593 9.57038 8.03015 8.76887 8.03015Z" fill="#7E8492"/>
</svg>
