<svg width="93" height="32" viewBox="0 0 93 32" fill="none" xmlns="http://www.w3.org/2000/svg">
<g clip-path="url(#clip0_1_2720)">
<path fill-rule="evenodd" clip-rule="evenodd" d="M81.6775 14.9135L75.8072 25.0706L70.7987 25.0906L81.6775 5.97254L92.5156 25.0906H87.4278L81.6775 14.9125V14.9135ZM65.8705 20.6689H71.48L68.8756 25.0906H61.5642L61.5841 19.7067V6.09008H65.8914L65.8715 20.6689H65.8705ZM50.4861 6.09108C55.8347 6.111 60.1619 10.3544 60.142 15.5998C60.1222 20.8263 55.7951 25.0706 50.4454 25.0706C45.1166 25.0507 40.7895 20.8074 40.7895 15.5609C40.8093 10.3344 45.1364 6.09108 50.4861 6.09108ZM50.4662 20.65C53.3305 20.65 55.6334 18.3898 55.6334 15.5998C55.6542 12.8107 53.3305 10.5307 50.4861 10.5307C47.6407 10.5107 45.3169 12.7908 45.3169 15.5809C45.2971 18.3699 47.6208 20.65 50.4653 20.65H50.4662ZM32.8166 14.0907C32.7571 13.3038 32.5557 12.2629 32.2552 11.2618C31.6369 9.19403 30.5619 7.29308 29.1103 5.70061C28.3486 4.87584 27.4878 4.10885 26.2044 3.20539C25.2261 2.72049 24.2642 2.2029 23.3203 1.65348C22.6995 1.29987 21.9576 0.866565 20.9767 0.552796C19.8137 0.277079 18.6249 0.125825 17.4301 0.101565C16.2698 0.0617217 15.1064 0.161331 13.9847 0.376487C12.8025 0.572718 11.8207 0.886487 10.5184 1.20125C7.57287 2.47825 5.2898 4.40369 3.32608 6.95867C-3.52512 16.566 2.66556 30.0252 14.1047 31.616C15.9881 31.872 17.8715 31.7734 19.6537 31.361L20.9162 31.0273C20.9559 31.0074 21.0164 30.9874 21.0561 30.9874L22.4991 30.4376C22.5785 30.3978 22.639 30.3778 22.7193 30.339L23.3203 30.0641C24.4735 29.4925 25.556 28.7871 26.5456 27.9623C25.6448 28.7844 24.665 29.5147 23.6208 30.1428L23.6803 30.1826C23.8817 30.1228 24.0612 30.0641 24.2615 30.0252C24.2615 30.0252 24.2615 30.339 24.2218 30.2802C23.9015 30.5163 24.4023 30.3001 25.043 29.9655C25.6847 29.6318 26.3056 29.2184 26.8659 28.7472C27.6881 28.0599 28.4091 27.3129 29.4307 26.0956C30.472 24.2678 31.7752 22.676 32.3762 20.5344C32.5766 19.9647 32.7561 19.2973 32.8771 18.609C32.9961 17.9217 33.0774 17.2145 33.0774 16.4873C33.0576 15.7602 32.9772 15.0131 32.8166 14.0907ZM17.9915 30.2414C21.4974 29.6905 24.442 27.7462 26.8461 25.0936C27.5076 24.1303 28.0283 23.2458 28.669 22.2836C29.4703 20.3183 29.4108 18.5701 29.6707 17.333C29.992 15.0918 29.2303 13.2849 28.5896 11.3594C27.6078 9.1192 26.3056 7.44975 24.0215 6.15283C18.2513 2.57686 10.3984 3.57793 6.6525 8.92297C6.63267 8.92297 6.5315 9.06043 6.33117 9.33536C6.592 8.23567 7.25352 7.58721 7.91404 6.95768C9.87776 5.34699 12.1618 4.06901 14.7662 3.44147C17.7118 3.1267 20.6356 3.44147 23.2598 4.71846C27.1873 6.95768 29.7917 10.4759 30.4522 14.6396V18.4914C29.631 24.7987 24.2218 29.5929 17.9915 30.2414ZM32.3961 15.8976C32.2552 6.66383 23.1001 0.435257 14.1851 1.69332C11.5806 2.34078 8.73523 3.6377 6.71201 5.44561C5.73015 6.09307 5.26996 7.29237 4.2881 8.25459C0.360666 14.012 1.04301 21.3801 5.93049 25.8605C6.55742 26.4831 7.22684 27.0609 7.93388 27.5898C3.84775 25.1324 2.00404 21.418 1.36335 16.9007C1.36335 15.289 1.6837 13.6972 2.02388 12.0866C4.30893 5.03223 11.5003 -0.0956611 19.3344 1.20125C20.6366 1.51602 21.9388 1.84971 23.2618 2.16448C24.9042 2.81194 26.5267 3.77516 27.8289 5.05315C29.1311 6.32914 30.113 7.94082 31.0949 9.53159C31.7554 10.8096 32.0767 12.4203 32.3971 13.6972C32.4566 14.4244 32.4566 15.1715 32.3971 15.8986L32.3961 15.8976Z" fill="#1D1E25"/>
<path fill-rule="evenodd" clip-rule="evenodd" d="M24.2623 16.036C24.2623 20.0054 20.9369 23.2278 16.83 23.2278C12.724 23.2278 9.39758 20.0054 9.39758 16.036C9.39758 12.0676 12.723 8.84521 16.83 8.84521C20.9369 8.84521 24.2623 12.0676 24.2623 16.037V16.036Z" fill="white"/>
<path fill-rule="evenodd" clip-rule="evenodd" d="M24.3031 14.8178C24.2029 14.268 24.0422 13.8356 23.8825 13.227C23.2409 11.8903 22.2997 10.8494 21.057 9.96483C16.4095 6.88092 10.0185 9.84729 9.33812 15.1136C9.07828 17.1965 9.81913 19.2006 11.1412 20.7336C10.7405 20.3202 10.3001 19.8889 9.99964 19.3968L9.95997 19.4367C9.99964 19.5542 10.1603 19.6329 10.2 19.7505C10.2 19.7505 10.0393 19.7505 10.08 19.7305C9.95997 19.5941 10.0601 19.8102 10.2396 20.1041C10.4003 20.3989 10.6007 20.6748 10.8407 20.9298C11.1818 21.3034 11.5419 21.6371 12.1429 22.0893C13.0256 22.5405 13.8061 23.1302 14.8276 23.4051C15.1083 23.4848 15.4286 23.5625 15.75 23.6213C16.0901 23.681 16.4105 23.701 16.7715 23.701C17.1117 23.701 17.4727 23.6611 17.913 23.5814C18.3671 23.5277 18.816 23.4361 19.2549 23.3075C20.2354 23.0111 21.1386 22.5009 21.9 21.8134C22.2808 21.4607 22.8223 21.0085 23.2418 20.4188C23.583 19.7514 23.6227 19.4168 23.7834 19.1219C23.943 18.8271 24.1434 18.4934 24.2842 18.0412C24.399 17.5047 24.466 16.959 24.4845 16.4105C24.4647 15.8607 24.425 15.3298 24.304 14.8188L24.3031 14.8178ZM19.5346 11.1641C20.2159 11.5566 20.3161 11.6154 19.9551 11.3604C20.4768 11.4779 20.7971 11.7727 21.1175 12.0676C21.899 12.9521 22.5397 13.993 22.86 15.1913C23.0405 16.547 22.8997 17.9027 22.3195 19.102C21.2781 20.9288 19.6149 22.1471 17.6314 22.4807C17.4112 22.4807 17.1712 22.4807 16.95 22.5007C17.5114 22.4021 17.8724 22.0484 18.8939 21.6749C19.9948 21.2824 21.2375 19.4556 21.8395 18.3938C23.6019 15.5051 21.5181 12.8336 19.5346 11.1641ZM15.7688 22.5196C12.7241 22.2058 10.3795 19.7106 10.0591 16.8219C10.3388 18.4336 11.3008 19.6708 12.6031 20.7714C13.0642 21.0663 13.7446 21.4787 14.2058 21.7735C14.9873 22.0684 15.4475 22.3831 16.2092 22.5206H15.7688V22.5196ZM23.9619 17.2742C23.823 17.8838 23.6822 18.4725 23.5414 19.0821C23.2409 19.8291 22.8005 20.5951 22.1995 21.2038C21.5985 21.8134 20.8368 22.2845 20.0761 22.7367C19.4751 23.0505 18.7134 23.2079 18.0925 23.3643C17.7315 23.4041 17.311 23.2467 16.95 23.2278C21.3981 23.1093 24.4429 18.9645 23.7824 14.8576C23.461 13.6593 22.8203 12.6174 22.0388 11.5765C21.7185 11.1243 21.0966 10.8494 20.6365 10.3971C17.8515 8.64899 14.1661 9.0026 12.0625 11.3016C11.7676 11.6037 11.4929 11.9251 11.2404 12.2638C12.363 10.6133 14.1661 9.45483 16.3292 9.12014C17.0908 9.10022 17.8724 9.23867 18.6331 9.37613C21.9992 10.3971 24.5034 13.6593 23.9619 17.2752V17.2742Z" fill="#D7DF23"/>
</g>
<defs>
<clipPath id="clip0_1_2720">
<rect width="92.2353" height="31.875" fill="white" transform="translate(0.382324 0.0626221)"/>
</clipPath>
</defs>
</svg>
