<svg width="81" height="30" viewBox="0 0 81 30" fill="none" xmlns="http://www.w3.org/2000/svg">
<g clip-path="url(#clip0_1_2732)">
<path d="M65.9719 28.7252C73.4809 28.7252 79.5909 22.5407 79.5909 14.9402C79.5909 7.33515 73.4809 1.15515 65.9719 1.15515C58.4613 1.15515 52.3529 7.33515 52.3529 14.9402C52.3529 22.5407 58.4613 28.7252 65.9719 28.7252ZM65.9719 10.0247C68.6479 10.0247 70.8273 12.2297 70.8273 14.9387C70.8273 17.6476 68.6464 19.8497 65.9704 19.8497C63.2928 19.8497 61.1164 17.6477 61.1164 14.9372C61.1164 12.2252 63.2943 10.0217 65.9704 10.0217L65.9719 10.0247ZM14.5896 28.7252C22.0987 28.7252 28.2086 22.5407 28.2086 14.9402C28.2086 7.33515 22.0987 1.15515 14.5896 1.15515C7.08198 1.15515 0.970581 7.33515 0.970581 14.9402C0.970581 22.5407 7.08198 28.7252 14.5896 28.7252ZM14.5896 10.0247C17.2671 10.0247 19.445 12.2297 19.445 14.9387C19.445 17.6476 17.2671 19.8497 14.5896 19.8497C11.9135 19.8497 9.73716 17.6477 9.73716 14.9372C9.73716 12.2252 11.915 10.0217 14.5896 10.0217V10.0247ZM40.2733 9.71415L36.0921 1.33515H26.3022L35.4462 19.6652V28.2947H45.1018V19.6652L54.2458 1.33515H44.4514L40.2748 9.71415H40.2733Z" fill="#EE2E24"/>
</g>
<defs>
<clipPath id="clip0_1_2732">
<rect width="79.0588" height="30" fill="white" transform="translate(0.970581 0.00012207)"/>
</clipPath>
</defs>
</svg>
