<svg width="113" height="28" viewBox="0 0 113 28" fill="none" xmlns="http://www.w3.org/2000/svg">
<g clip-path="url(#clip0_1_2727)">
<path d="M40.2221 10.2119V11.6996H40.268C40.8075 10.9031 41.7031 9.96507 43.6882 9.96507C45.2326 9.96507 46.4173 10.7451 46.925 11.9234H46.9709C47.4046 11.3276 47.9017 10.8767 48.4588 10.5575C49.1182 10.179 49.8516 9.96178 50.7754 9.96178C52.8663 9.96178 54.7175 11.3112 54.7175 14.7143V21.1685H51.53V15.1652C51.53 13.4406 50.9024 12.4434 49.5977 12.4434C48.6422 12.4434 47.9476 13.0424 47.6831 13.7796C47.5915 14.0331 47.5491 14.3786 47.5491 14.6683V21.1718H44.3617V14.9217C44.3617 13.4571 43.7587 12.4401 42.4717 12.4401C41.4421 12.4401 40.7969 13.1971 40.5324 13.8455C40.4196 14.1219 40.3843 14.4412 40.3843 14.7407V21.1685H37.1933V10.2119H40.2221ZM71.1697 10.2119V12.2788H71.2579C71.8432 10.699 73.2324 9.96507 74.4524 9.96507C74.7592 9.96507 74.9284 9.98811 75.1752 10.0342V12.9042C74.8826 12.8647 74.6111 12.8252 74.2303 12.8252C72.8481 12.8252 71.8855 13.5756 71.6422 14.7505C71.5893 14.9941 71.5717 15.2574 71.5717 15.5602V21.1718H68.2996V10.2119H71.1697ZM79.618 6.58167V10.0309H82.3824V12.8219H79.618V16.9392C79.618 18.2722 79.9812 18.9173 81.0601 18.9173C81.5679 18.9173 81.9416 18.858 82.266 18.7823L82.3083 21.0961C81.8746 21.2475 80.9508 21.412 80.0129 21.412C78.9093 21.412 77.989 21.0533 77.4284 20.4971C76.7866 19.8619 76.4904 18.8218 76.4904 17.3408V6.58167H79.618ZM34.9719 21.1685H31.7986V6.58167H34.9719V21.1685ZM26.5096 17.2552C26.5096 17.456 26.4919 17.6666 26.432 17.8476C26.1852 18.6079 25.3425 19.2497 24.2917 19.2497C23.4138 19.2497 22.7156 18.7856 22.7156 17.8015C22.7156 16.2974 24.4927 15.8794 26.5131 15.8893V17.2552H26.5096ZM29.6794 14.6321C29.6794 12.1472 28.5441 9.96507 24.7043 9.96507C22.7332 9.96507 21.1677 10.4818 20.3144 10.9426L20.9385 12.9371C21.7178 12.4763 22.9624 12.0978 24.1401 12.0978C26.09 12.0945 26.4073 13.128 26.4073 13.7895V13.9475C22.1585 13.9409 19.4752 15.3134 19.4752 18.1109C19.4752 19.8191 20.8398 21.4186 23.2163 21.4186C24.6796 21.4186 25.8996 20.8756 26.633 20.0034H26.7035C26.7035 20.0034 27.1901 21.8959 29.8628 21.1718C29.7218 20.3819 29.6759 19.5426 29.6759 18.5322V14.6321H29.6794ZM3.53425 6.58167C3.86217 8.12526 4.79303 12.6079 4.79303 12.6079C5.18441 14.451 5.54406 16.383 5.81556 17.9101H5.86493C6.12938 16.2876 6.54544 14.7505 6.98972 12.8482L8.55878 6.58167H12.0319L13.4987 13.0095C13.883 14.7966 14.1898 16.1757 14.4331 17.8377H14.4789C14.7434 16.1592 15.0889 14.7242 15.4662 12.8877L16.8766 6.58167H20.2086L16.0797 21.1685C13.4493 21.705 12.4409 20.7176 12.0812 19.151C11.7216 17.581 11.0164 14.5959 11.0164 14.5959C10.6532 12.9601 10.3711 11.8082 10.1737 10.1296H10.1243C9.84224 11.7917 9.54606 12.9568 9.10883 14.5926L7.37758 21.1718C4.69077 21.672 3.75991 20.9315 3.24512 18.9206C2.80084 17.1992 0.0294189 6.58496 0.0294189 6.58496H3.53425V6.58167ZM63.0106 17.2552C63.0106 17.456 62.993 17.6666 62.933 17.8476C62.6862 18.6079 61.8435 19.2497 60.7927 19.2497C59.9148 19.2497 59.2166 18.7856 59.2166 17.8015C59.2166 16.2974 60.9937 15.8794 63.0141 15.8893V17.2552H63.0106ZM66.1805 14.6321C66.1805 12.1472 65.0451 9.96507 61.2053 9.96507C59.2343 9.96507 57.6687 10.4818 56.8154 10.9426L57.4395 12.9371C58.2188 12.4763 59.4634 12.0978 60.6411 12.0978C62.5875 12.0945 62.9083 13.128 62.9083 13.7895V13.9475C58.6631 13.9409 55.9798 15.3134 55.9798 18.1109C55.9798 19.8191 57.3479 21.4186 59.7208 21.4186C61.1806 21.4186 62.4041 20.8756 63.134 20.0034H63.208C63.208 20.0034 63.6946 21.8959 66.3673 21.1718C66.2263 20.3819 66.1805 19.5426 66.1805 18.5322V14.6321Z" fill="#041E42"/>
<path d="M95.2462 16.1447C95.559 16.6774 95.5379 17.2719 95.204 17.5434L89.433 21.4991C88.832 21.8394 87.9322 21.427 87.4226 20.5643C86.9094 19.6983 87.0008 18.7325 87.6018 18.3923L93.9915 15.4848C94.3921 15.3336 94.9334 15.612 95.2462 16.1447ZM102.841 16.1447C103.158 15.612 103.695 15.337 104.096 15.4814L110.489 18.3889C111.09 18.7291 111.178 19.6948 110.669 20.5609C110.155 21.4235 109.252 21.8325 108.655 21.4957L102.884 17.54C102.553 17.2719 102.529 16.6739 102.841 16.1447ZM99.042 18.2892C99.6712 18.2892 100.188 18.6054 100.258 19.0212L100.88 25.8879C100.88 26.5684 100.068 27.1251 99.0456 27.1251C98.0263 27.1251 97.2109 26.5684 97.2109 25.8879L97.8295 19.0212C97.8998 18.6054 98.4164 18.2892 99.042 18.2892ZM102.884 10.4603L108.655 6.5011C109.252 6.16086 110.155 6.56984 110.669 7.4359C111.178 8.30197 111.09 9.2677 110.489 9.60794L104.096 12.5189C103.695 12.6632 103.154 12.3883 102.841 11.8556C102.529 11.3229 102.553 10.7283 102.884 10.4603ZM93.9915 12.5189L87.6018 9.60794C87.0043 9.2677 86.913 8.30197 87.4226 7.4359C87.9322 6.56984 88.8355 6.16086 89.433 6.5011L95.204 10.4603C95.5379 10.7249 95.559 11.3229 95.2462 11.8556C94.9334 12.3883 94.3921 12.6632 93.9915 12.5189ZM97.8295 8.97901L97.2109 2.11236C97.2109 1.43188 98.0228 0.875122 99.0456 0.875122C100.068 0.875122 100.88 1.43188 100.88 2.11236L100.258 8.97901C100.188 9.39142 99.6712 9.71104 99.042 9.71104C98.4164 9.71104 97.8998 9.39142 97.8295 8.97901ZM112.229 21.4716V21.2998H112.387C112.44 21.2998 112.475 21.3342 112.475 21.3857C112.475 21.4338 112.44 21.4716 112.387 21.4716H112.229ZM112.099 21.7844C112.099 21.8016 112.113 21.8188 112.134 21.8188H112.201C112.218 21.8188 112.236 21.8016 112.236 21.7844V21.5885H112.345L112.433 21.7947C112.44 21.8084 112.45 21.8188 112.465 21.8188H112.545C112.57 21.8188 112.588 21.7947 112.577 21.7706C112.545 21.7088 112.514 21.6435 112.482 21.5782C112.535 21.561 112.616 21.5095 112.616 21.3857C112.616 21.2551 112.507 21.1795 112.398 21.1795H112.134C112.117 21.1795 112.099 21.1967 112.099 21.2139V21.7844ZM111.814 21.4991C111.814 21.2208 112.046 20.9939 112.331 20.9939C112.616 20.9939 112.848 21.2173 112.848 21.4991C112.848 21.7775 112.619 22.0043 112.331 22.0043C112.043 22.0043 111.814 21.7775 111.814 21.4991ZM111.691 21.4991C111.691 21.8428 111.976 22.1246 112.331 22.1246C112.682 22.1246 112.971 21.8428 112.971 21.4991C112.971 21.1555 112.682 20.8736 112.331 20.8736C111.976 20.8736 111.691 21.1555 111.691 21.4991Z" fill="#FFC124"/>
</g>
<defs>
<clipPath id="clip0_1_2727">
<rect width="112.941" height="26.25" fill="white" transform="translate(0.0294189 0.875122)"/>
</clipPath>
</defs>
</svg>
