<svg xmlns="http://www.w3.org/2000/svg" width="40" height="40" fill="none" viewBox="0 0 40 40"><path fill="#fff" d="M16.06 22.273a1.5 1.5 0 1 0-2.12 2.121zm2.273 4.394-1.06 1.06a1.5 1.5 0 0 0 2.121 0zm7.728-5.606a1.5 1.5 0 0 0-2.122-2.122zm5.606-9.394h-1.5v20h3v-20zM28.333 35v-1.5H11.667v3h16.666zm-20-3.333h1.5v-20h-3v20zm3.334-23.334v1.5H15v-3h-3.333zm13.333 0v1.5h3.333v-3H25zM11.667 35v-1.5a1.833 1.833 0 0 1-1.834-1.833h-3a4.833 4.833 0 0 0 4.834 4.833zm20-3.333h-1.5a1.834 1.834 0 0 1-1.834 1.833v3a4.833 4.833 0 0 0 4.834-4.833zm0-20h1.5a4.833 4.833 0 0 0-4.834-4.834v3c1.013 0 1.834.821 1.834 1.834zm-23.334 0h1.5c0-1.013.821-1.834 1.834-1.834v-3a4.833 4.833 0 0 0-4.834 4.834zM15 23.333l-1.06 1.061 3.333 3.333 1.06-1.06 1.061-1.061-3.333-3.333zm3.333 3.334 1.061 1.06 6.667-6.666L25 20l-1.06-1.06-6.667 6.666zm0-21.667v1.5h3.334v-3h-3.334zm3.334 6.667v-1.5h-3.334v3h3.334zm-3.334 0v-1.5A1.833 1.833 0 0 1 16.5 8.333h-3a4.833 4.833 0 0 0 4.833 4.834zM25 8.333h-1.5c0 1.013-.82 1.834-1.833 1.834v3A4.833 4.833 0 0 0 26.5 8.333zM21.667 5v1.5c1.012 0 1.833.82 1.833 1.833h3A4.833 4.833 0 0 0 21.667 3.5zm-3.334 0V3.5A4.833 4.833 0 0 0 13.5 8.333h3c0-1.012.82-1.833 1.833-1.833z"/></svg>