<svg xmlns="http://www.w3.org/2000/svg" width="95" height="30" fill="none" viewBox="0 0 95 30"><g clip-path="url(#a)"><path fill="#F60" d="m70.43 28.22 7.85-8.658-7.85-8.66h8.282l3.888 4.206 3.743-4.207h7.993l-7.812 8.625 7.919 8.695h-8.316l-3.852-4.241-3.816 4.24z"/><path fill="#F60" d="M70.43 7.019h-8.889V10.9h8.89v5.851h-8.89v5.371h8.89v6.098H55.007V.938h15.424z"/><path fill="#652C8F" d="M48.5.938v11.165h-.07c-1.441-1.625-3.24-2.19-5.329-2.19-4.277 0-7.5 2.855-8.63 6.63-1.29-4.16-4.617-6.708-9.55-6.708-4.005 0-7.168 1.765-8.82 4.642v-3.575H7.823V7.019h9.036V.938H.44V28.22h7.381V16.752h7.357a10.7 10.7 0 0 0-.337 2.697c0 5.691 4.428 9.684 10.08 9.684 4.752 0 7.883-2.19 9.54-6.184h-6.325c-.856 1.2-1.505 1.556-3.215 1.556-1.984 0-3.694-1.699-3.694-3.713h12.88c.558 4.52 4.144 8.419 9.066 8.419a6.34 6.34 0 0 0 5.255-2.757h.072v1.767h6.506V.938zM21.435 16.834c.41-1.733 1.779-2.866 3.488-2.866 1.88 0 3.18 1.098 3.522 2.866zm23.119 7.233c-2.399 0-3.89-2.194-3.89-4.485 0-2.45 1.297-4.804 3.89-4.804 2.688 0 3.758 2.355 3.758 4.804 0 2.322-1.135 4.485-3.758 4.485"/></g><defs><clipPath id="a"><path fill="#fff" d="M.441.938H94.56v28.125H.44z"/></clipPath></defs></svg>