<svg xmlns="http://www.w3.org/2000/svg" width="90" height="30" fill="none" viewBox="0 0 90 30"><g clip-path="url(#a)"><path fill="#EA4335" d="M38.314 15.385c0 4.164-3.284 7.233-7.314 7.233s-7.314-3.069-7.314-7.233c0-4.194 3.284-7.233 7.314-7.233s7.314 3.04 7.314 7.233m-3.202 0c0-2.602-1.903-4.383-4.112-4.383s-4.112 1.78-4.112 4.383c0 2.576 1.903 4.382 4.112 4.382s4.112-1.81 4.112-4.382"/><path fill="#FBBC05" d="M54.092 15.385c0 4.164-3.283 7.233-7.314 7.233-4.03 0-7.314-3.069-7.314-7.233 0-4.19 3.284-7.233 7.314-7.233s7.314 3.04 7.314 7.233m-3.201 0c0-2.602-1.904-4.383-4.113-4.383s-4.112 1.78-4.112 4.383c0 2.576 1.903 4.382 4.112 4.382s4.113-1.81 4.113-4.382"/><path fill="#4285F4" d="M69.214 8.59v12.984c0 5.341-3.176 7.523-6.93 7.523-3.534 0-5.66-2.345-6.462-4.262l2.787-1.151c.496 1.177 1.713 2.566 3.672 2.566 2.403 0 3.892-1.47 3.892-4.239v-1.04h-.112c-.717.877-2.097 1.643-3.84 1.643-3.645 0-6.985-3.15-6.985-7.203 0-4.083 3.34-7.259 6.986-7.259 1.739 0 3.12.767 3.84 1.618h.11V8.592h3.042zM66.4 15.41c0-2.547-1.713-4.409-3.892-4.409-2.21 0-4.06 1.862-4.06 4.409 0 2.52 1.85 4.356 4.06 4.356 2.18 0 3.892-1.835 3.892-4.356"/><path fill="#34A853" d="M74.227.978v21.196h-3.123V.978z"/><path fill="#EA4335" d="m86.396 17.765 2.485 1.644c-.802 1.177-2.735 3.205-6.075 3.205-4.142 0-7.235-3.176-7.235-7.232 0-4.301 3.12-7.233 6.877-7.233 3.784 0 5.634 2.987 6.24 4.601l.331.822-9.746 4.004c.746 1.451 1.906 2.191 3.533 2.191 1.63 0 2.761-.795 3.59-2.002m-7.65-2.602 6.516-2.684c-.359-.903-1.437-1.532-2.706-1.532-1.627 0-3.892 1.425-3.81 4.216"/><path fill="#4285F4" d="M11.865 13.503v-3.068H22.29c.102.535.154 1.167.154 1.852 0 2.302-.634 5.149-2.679 7.177-1.988 2.055-4.53 3.15-7.895 3.15-6.24 0-11.486-5.041-11.486-11.23C.383 5.194 5.63.154 11.868.154c3.452 0 5.91 1.343 7.758 3.094l-2.182 2.165c-1.325-1.232-3.12-2.191-5.579-2.191-4.556 0-8.12 3.642-8.12 8.162s3.564 8.162 8.12 8.162c2.955 0 4.638-1.177 5.717-2.247.874-.867 1.45-2.106 1.676-3.799z"/></g><defs><clipPath id="a"><path fill="#fff" d="M.265 0h89.411v30H.265z"/></clipPath></defs></svg>