<svg xmlns="http://www.w3.org/2000/svg" width="81" height="30" fill="none" viewBox="0 0 81 30"><g clip-path="url(#a)"><path fill="#EE2E24" d="M65.972 28.725c7.509 0 13.619-6.184 13.619-13.785 0-7.605-6.11-13.785-13.62-13.785S52.354 7.335 52.354 14.94c0 7.6 6.108 13.785 13.619 13.785m0-18.7c2.676 0 4.855 2.205 4.855 4.914s-2.18 4.91-4.857 4.91-4.854-2.201-4.854-4.912c0-2.712 2.178-4.915 4.854-4.915zm-51.382 18.7c7.509 0 13.619-6.184 13.619-13.785 0-7.605-6.11-13.785-13.62-13.785C7.083 1.155.972 7.335.972 14.94c0 7.6 6.111 13.785 13.619 13.785m0-18.7c2.677 0 4.855 2.205 4.855 4.914s-2.178 4.91-4.855 4.91c-2.676 0-4.853-2.201-4.853-4.912 0-2.712 2.178-4.915 4.853-4.915zm25.683-.31-4.18-8.38h-9.79l9.143 18.33v8.63h9.656v-8.63l9.144-18.33H44.45z"/></g><defs><clipPath id="a"><path fill="#fff" d="M.97 0h79.06v30H.97z"/></clipPath></defs></svg>