<svg xmlns="http://www.w3.org/2000/svg" width="132" height="20" fill="none" viewBox="0 0 132 20"><path fill="#FFD33C" fill-rule="evenodd" d="m11.227.796 2.03 4.295c.2.422.584.715 1.029.782l4.542.692c1.122.172 1.569 1.612.757 2.437L16.3 12.344c-.323.329-.47.801-.393 1.265l.775 4.718c.19 1.167-.982 2.057-1.985 1.505l-4.06-2.229a1.32 1.32 0 0 0-1.274 0l-4.06 2.23c-1.003.551-2.176-.34-1.984-1.506l.774-4.718a1.47 1.47 0 0 0-.393-1.265L.415 9.002c-.812-.825-.365-2.265.757-2.437l4.542-.692c.445-.067.83-.36 1.03-.782L8.773.796a1.343 1.343 0 0 1 2.454 0m28 0 2.03 4.295c.2.422.584.715 1.029.782l4.542.692c1.122.172 1.569 1.612.757 2.437L44.3 12.344c-.323.329-.47.801-.393 1.265l.775 4.718c.19 1.167-.982 2.057-1.985 1.505l-4.06-2.229a1.32 1.32 0 0 0-1.274 0l-4.06 2.23c-1.003.551-2.176-.34-1.984-1.506l.774-4.718a1.47 1.47 0 0 0-.393-1.265l-3.285-3.342c-.812-.825-.365-2.265.757-2.437l4.542-.692c.446-.067.83-.36 1.03-.782L36.773.796a1.343 1.343 0 0 1 2.454 0m28 0 2.03 4.295c.2.422.584.715 1.029.782l4.542.692c1.122.172 1.569 1.612.757 2.437L72.3 12.344c-.323.329-.47.801-.393 1.265l.775 4.718c.19 1.167-.982 2.057-1.985 1.505l-4.06-2.229a1.32 1.32 0 0 0-1.274 0l-4.06 2.23c-1.003.551-2.176-.34-1.984-1.506l.774-4.718a1.47 1.47 0 0 0-.393-1.265l-3.285-3.342c-.812-.825-.365-2.265.757-2.437l4.542-.692c.446-.067.83-.36 1.03-.782L64.773.796a1.343 1.343 0 0 1 2.454 0m28 0 2.03 4.295c.2.422.584.715 1.029.782l4.542.692c1.122.172 1.569 1.612.757 2.437l-3.285 3.342c-.323.329-.47.801-.393 1.265l.775 4.718c.191 1.167-.982 2.057-1.985 1.505l-4.06-2.229a1.32 1.32 0 0 0-1.274 0l-4.06 2.23c-1.003.551-2.176-.34-1.984-1.506l.774-4.718a1.47 1.47 0 0 0-.393-1.265l-3.285-3.342c-.812-.825-.365-2.265.757-2.437l4.542-.692c.445-.067.83-.36 1.03-.782L92.773.796a1.343 1.343 0 0 1 2.454 0m28 0 2.03 4.295c.199.422.584.715 1.029.782l4.542.692c1.122.172 1.569 1.612.757 2.437l-3.285 3.342c-.323.329-.47.801-.393 1.265l.775 4.718c.191 1.167-.982 2.057-1.985 1.505l-4.06-2.229a1.32 1.32 0 0 0-1.274 0l-4.06 2.23c-1.003.551-2.176-.34-1.984-1.506l.774-4.718a1.47 1.47 0 0 0-.393-1.265l-3.285-3.342c-.812-.825-.365-2.265.757-2.437l4.542-.692c.445-.067.831-.36 1.03-.782l2.029-4.295a1.343 1.343 0 0 1 2.454 0" clip-rule="evenodd"/></svg>