<svg xmlns="http://www.w3.org/2000/svg" width="177" height="149" fill="none" viewBox="0 0 177 149"><path stroke="#E6E9ED" stroke-dasharray="2 2" d="M28.702 12.773h143m-143 52h143m-143 55h143"/><path fill="#808D9E" d="M37.25 134.487h1.057v6.238q0 .835-.306 1.419a2.1 2.1 0 0 1-.866.887q-.558.302-1.316.302-.716 0-1.275-.26a2.1 2.1 0 0 1-.877-.75q-.32-.486-.32-1.155h1.04q0 .371.183.648.187.273.511.426.324.154.738.154.456 0 .775-.192.32-.191.486-.563.17-.375.17-.916zm4.965 8.88q-.622 0-1.13-.234a1.94 1.94 0 0 1-.805-.686q-.298-.452-.298-1.091 0-.562.222-.912.221-.353.592-.554.37-.2.818-.298a10 10 0 0 1 .908-.162q.597-.077.967-.115.375-.043.546-.141.174-.098.174-.341v-.034q0-.63-.345-.98-.34-.35-1.035-.349-.72 0-1.13.315-.408.316-.575.673l-.955-.341q.256-.596.682-.929.43-.336.938-.468a4 4 0 0 1 1.005-.137 4 4 0 0 1 .725.077q.413.072.797.302.388.23.643.695t.256 1.244v4.313h-1.006v-.886h-.05a1.8 1.8 0 0 1-.342.455q-.238.243-.635.414-.396.17-.967.17m.153-.903q.597 0 1.006-.235a1.59 1.59 0 0 0 .835-1.384v-.921q-.063.076-.281.141a5 5 0 0 1-.494.106 21 21 0 0 1-.963.128 4 4 0 0 0-.733.166 1.26 1.26 0 0 0-.546.337q-.204.222-.204.605 0 .524.388.793.391.264.992.264m5.688-3.188v3.938h-1.005v-6.546h.971v1.023h.085q.23-.498.7-.801.468-.307 1.21-.307.664 0 1.163.273.498.269.775.818.277.546.277 1.381v4.159h-1.005v-4.091q0-.771-.4-1.202-.401-.434-1.1-.434-.481 0-.861.208-.375.21-.593.61-.216.4-.217.971"/><path fill="#1D1E25" d="M.73 7.814v-1.04h2.08v7.29H1.66v-6.25zm3.646 2.51q0-1.73.58-2.7.59-.98 2.02-.98t2.01.98q.59.97.59 2.7 0 1.75-.59 2.74-.579.98-2.01.98t-2.02-.98q-.58-.99-.58-2.74m4.08 0q0-.81-.11-1.37-.099-.56-.42-.91-.32-.36-.95-.36t-.95.36q-.32.35-.43.91-.1.56-.1 1.37 0 .84.1 1.41t.42.92q.33.35.96.35t.95-.35q.33-.35.43-.92t.1-1.41m4.657.99 2.54 2.75h-1.54l-2.04-2.37v2.37h-1.14v-7.4h1.14v4.3l2-2.41h1.58zM7.338 61.755h-3.35v1.99q.21-.28.62-.47.42-.19.89-.19.84 0 1.36.36.53.36.75.91.23.55.23 1.16 0 .74-.29 1.32-.28.57-.85.9-.56.33-1.38.33-1.09 0-1.75-.54t-.79-1.43h1.11q.11.47.49.75.38.27.95.27.71 0 1.06-.43.36-.43.36-1.14 0-.72-.36-1.1-.36-.39-1.06-.39-.49 0-.83.25-.33.24-.48.66h-1.08v-4.21h4.4zm4.017 3.56 2.54 2.75h-1.54l-2.04-2.37v2.37h-1.14v-7.4h1.14v4.3l2-2.41h1.58zm-5.958 53.009q0-1.73.58-2.7.59-.98 2.02-.98t2.01.98q.59.97.59 2.7 0 1.75-.59 2.74-.58.98-2.01.98t-2.02-.98q-.58-.99-.58-2.74m4.08 0q0-.81-.11-1.37-.1-.56-.42-.91-.32-.36-.95-.36t-.95.36q-.32.35-.43.91-.1.56-.1 1.37 0 .84.1 1.41t.42.92q.33.35.96.35t.95-.35q.33-.35.43-.92t.1-1.41" opacity="0.7"/><path fill="#808D9E" d="M146.619 134.487h1.261l2.966 7.244h.102l2.966-7.244h1.261v8.727h-.988v-6.631h-.085l-2.728 6.631h-.954l-2.728-6.631h-.085v6.631h-.988zm12.465 8.88q-.622 0-1.129-.234a1.94 1.94 0 0 1-.806-.686q-.298-.452-.298-1.091 0-.562.222-.912.221-.353.592-.554.37-.2.818-.298a10 10 0 0 1 .908-.162q.597-.077.967-.115.375-.043.546-.141.174-.098.174-.341v-.034q0-.63-.345-.98-.34-.35-1.035-.349-.72 0-1.13.315-.408.316-.575.673l-.954-.341q.255-.596.681-.929.43-.336.938-.468a4 4 0 0 1 1.006-.137 4 4 0 0 1 .724.077q.414.072.797.302.388.23.643.695.256.465.256 1.244v4.313h-1.006v-.886h-.051a1.8 1.8 0 0 1-.341.455q-.238.243-.635.414-.396.17-.967.17m.154-.903q.595 0 1.005-.235.414-.234.622-.605.213-.37.213-.779v-.921q-.063.076-.281.141a5 5 0 0 1-.494.106 21 21 0 0 1-.963.128q-.393.052-.733.166a1.26 1.26 0 0 0-.546.337q-.204.222-.204.605 0 .524.388.793.392.264.993.264m4.682.75v-6.546h.971v.989h.068q.18-.486.648-.788a1.9 1.9 0 0 1 1.057-.303q.11 0 .277.004.167.005.251.013v1.023a3 3 0 0 0-.234-.038 2.3 2.3 0 0 0-.379-.03q-.477 0-.852.2a1.5 1.5 0 0 0-.589.545 1.47 1.47 0 0 0-.213.789v4.142zm-73.3 0v-8.727h5.232v.937h-4.176v2.949h3.784v.937h-3.784v3.904zm9.17.136q-.946 0-1.633-.417a2.8 2.8 0 0 1-1.052-1.177q-.366-.757-.367-1.764 0-1.005.367-1.772.37-.772 1.031-1.202.664-.435 1.551-.435.512 0 1.01.171.499.17.908.554.41.379.652 1.005.243.627.243 1.543v.426h-5.046v-.869h4.023q0-.555-.222-.989a1.66 1.66 0 0 0-.622-.686 1.74 1.74 0 0 0-.946-.251q-.6 0-1.04.298-.434.294-.669.767a2.25 2.25 0 0 0-.234 1.014v.58q0 .741.256 1.257.26.511.72.78.46.264 1.07.264.396 0 .715-.111a1.5 1.5 0 0 0 .559-.341q.234-.23.362-.571l.972.273a2.2 2.2 0 0 1-.516.869q-.363.37-.895.58a3.3 3.3 0 0 1-1.197.204m4.376-.136v-8.727h1.006v3.221h.085a9 9 0 0 1 .307-.434q.2-.269.571-.478.375-.213 1.014-.213.827 0 1.457.414.631.413.985 1.171.354.76.353 1.79 0 1.04-.353 1.803-.354.757-.98 1.176a2.57 2.57 0 0 1-1.445.413q-.63 0-1.01-.209a1.9 1.9 0 0 1-.584-.481 7 7 0 0 1-.315-.452h-.119v1.006zm.989-3.273q0 .742.217 1.308.217.563.635.882.417.316 1.023.316.63 0 1.052-.333.426-.336.639-.903.218-.571.218-1.27 0-.69-.213-1.244a1.93 1.93 0 0 0-.635-.882q-.422-.328-1.061-.328-.613 0-1.032.311a1.87 1.87 0 0 0-.63.86q-.213.55-.213 1.283"/><rect width="15" height="52.5351" x="36.75" y="17.5645" fill="#EB6E46" stroke="#fff" stroke-width="3" rx="7.5"/><rect width="15" height="52.5351" x="36.75" y="32.3608" fill="#20BFF7" stroke="#fff" stroke-width="3" rx="7.5"/><rect width="15" height="52.5351" x="36.75" y="69.6729" fill="#2280FF" stroke="#fff" stroke-width="3" rx="7.5"/><rect width="15" height="35.2918" x="92.75" y="51.6602" fill="#EB6E46" stroke="#fff" stroke-width="3" rx="7.5"/><rect width="15" height="35.2918" x="92.75" y="76.1064" fill="#20BFF7" stroke="#fff" stroke-width="3" rx="7.5"/><rect width="15" height="20.3694" x="92.75" y="101.839" fill="#2280FF" stroke="#fff" stroke-width="3" rx="7.5"/><rect width="15" height="33.7243" x="148.75" y="56.1631" fill="#EB6E46" stroke="#fff" stroke-width="3" rx="7.5"/><rect width="15" height="33.7243" x="148.75" y="65.3408" fill="#20BFF7" stroke="#fff" stroke-width="3" rx="7.5"/><rect width="15" height="33.7243" x="148.75" y="88.4844" fill="#2280FF" stroke="#fff" stroke-width="3" rx="7.5"/></svg>