<svg xmlns="http://www.w3.org/2000/svg" width="93" height="32" fill="none" viewBox="0 0 93 32"><g fill-rule="evenodd" clip-path="url(#a)" clip-rule="evenodd"><path fill="#1D1E25" d="m81.678 14.914-5.87 10.157-5.01.02 10.88-19.118L92.515 25.09h-5.088l-5.75-10.179zM65.87 20.669h5.609l-2.604 4.422h-7.312l.02-5.384V6.09h4.307zM50.486 6.09c5.349.02 9.676 4.263 9.656 9.509-.02 5.226-4.347 9.47-9.697 9.47-5.328-.02-9.656-4.263-9.656-9.51.02-5.226 4.347-9.469 9.697-9.469m-.02 14.559c2.864 0 5.167-2.26 5.167-5.05.021-2.79-2.303-5.07-5.147-5.07-2.845-.02-5.17 2.26-5.17 5.05-.019 2.79 2.305 5.07 5.15 5.07m-17.65-6.56c-.059-.786-.26-1.827-.56-2.828A14.4 14.4 0 0 0 29.11 5.7c-.761-.825-1.622-1.592-2.906-2.496a49 49 0 0 1-2.884-1.552c-.62-.353-1.362-.786-2.343-1.1a17 17 0 0 0-3.547-.45c-1.16-.04-2.324.06-3.445.274-1.182.197-2.164.51-3.467.825C7.573 2.478 5.29 4.404 3.326 6.96c-6.851 9.607-.66 23.066 10.779 24.657 1.883.256 3.767.157 5.549-.255l1.262-.334c.04-.02.1-.04.14-.04l1.443-.55c.08-.04.14-.06.22-.098l.601-.275a16.4 16.4 0 0 0 3.226-2.102 18.4 18.4 0 0 1-2.925 2.18l.06.04c.2-.06.38-.118.58-.157 0 0 0 .314-.04.255-.32.236.181.02.822-.315a10 10 0 0 0 1.823-1.218c.822-.687 1.543-1.434 2.565-2.651 1.041-1.828 2.344-3.42 2.945-5.562.2-.57.38-1.237.501-1.925.12-.687.2-1.395.2-2.122a16 16 0 0 0-.26-2.396m-14.825 16.15c3.506-.55 6.451-2.495 8.855-5.147.662-.964 1.182-1.848 1.823-2.81.801-1.966.742-3.714 1.002-4.951.321-2.241-.44-4.048-1.081-5.974-.982-2.24-2.284-3.91-4.568-5.206-5.77-3.576-13.624-2.575-17.37 2.77-.02 0-.12.137-.32.412.26-1.1.922-1.748 1.582-2.377 1.964-1.611 4.248-2.889 6.852-3.517 2.946-.314 5.87 0 8.494 1.277 3.927 2.24 6.532 5.758 7.192 9.922v3.851c-.821 6.308-6.23 11.102-12.46 11.75m14.405-14.343C32.256 6.664 23.1.435 14.186 1.693c-2.605.648-5.45 1.945-7.474 3.753-.982.647-1.442 1.846-2.424 2.809C.361 14.012 1.043 21.38 5.93 25.86q.942.934 2.004 1.729c-4.086-2.458-5.93-6.172-6.57-10.69 0-1.611.32-3.203.66-4.813C4.309 5.032 11.5-.096 19.334 1.2c1.303.315 2.605.649 3.928.963 1.642.648 3.265 1.611 4.567 2.89 1.302 1.275 2.284 2.887 3.266 4.478.66 1.278.982 2.888 1.302 4.165.06.727.06 1.475 0 2.202z"/><path fill="#fff" d="M24.262 16.036c0 3.97-3.325 7.192-7.432 7.192-4.106 0-7.432-3.223-7.432-7.192 0-3.968 3.325-7.19 7.432-7.19s7.432 3.222 7.432 7.191z"/><path fill="#D7DF23" d="M24.303 14.818c-.1-.55-.26-.982-.42-1.591-.642-1.337-1.583-2.378-2.826-3.262-4.647-3.084-11.038-.118-11.719 5.149-.26 2.082.481 4.087 1.803 5.62-.4-.414-.84-.845-1.141-1.337l-.04.04c.04.117.2.196.24.313 0 0-.16 0-.12-.02-.12-.136-.02.08.16.374q.24.442.6.826c.342.373.702.707 1.303 1.16.883.45 1.663 1.04 2.685 1.315.28.08.6.157.922.216.34.06.66.08 1.021.08.34 0 .702-.04 1.142-.12a8 8 0 0 0 1.342-.273 6.95 6.95 0 0 0 2.645-1.495c.38-.352.922-.804 1.342-1.394.341-.668.38-1.002.541-1.297.16-.295.36-.629.501-1.08a9.3 9.3 0 0 0 .2-1.632c-.02-.55-.059-1.08-.18-1.591zm-4.768-3.654c.68.393.781.451.42.196.522.118.842.413 1.163.708.781.884 1.422 1.925 1.742 3.123.18 1.356.04 2.712-.54 3.911-1.042 1.827-2.705 3.045-4.689 3.379-.22 0-.46 0-.681.02.561-.099.922-.453 1.944-.826 1.1-.393 2.344-2.22 2.946-3.281 1.762-2.889-.322-5.56-2.305-7.23M15.769 22.52c-3.045-.314-5.39-2.81-5.71-5.698.28 1.612 1.242 2.849 2.544 3.95.461.294 1.142.707 1.603 1.002.781.294 1.242.61 2.003.747zm8.193-5.246c-.139.61-.28 1.198-.42 1.808-.301.747-.742 1.513-1.343 2.122-.6.61-1.362 1.08-2.123 1.533-.6.314-1.363.47-1.983.627-.361.04-.782-.117-1.143-.136 4.448-.119 7.493-4.264 6.832-8.37-.321-1.199-.962-2.24-1.743-3.282-.32-.452-.942-.727-1.402-1.179-2.785-1.748-6.47-1.394-8.574.905q-.443.453-.823.962c1.123-1.65 2.926-2.81 5.09-3.144.76-.02 1.542.119 2.303.256 3.366 1.021 5.87 4.283 5.329 7.9z"/></g><defs><clipPath id="a"><path fill="#fff" d="M.382.063h92.236v31.875H.382z"/></clipPath></defs></svg>