<svg xmlns="http://www.w3.org/2000/svg" width="367" height="261" fill="none" viewBox="0 0 367 261"><g clip-path="url(#a)"><mask id="b" width="369" height="261" x="-1" y="8" maskUnits="userSpaceOnUse" style="mask-type:luminance"><path fill="#fff" d="m-.035 8.878 367.22.102-.071 260-367.22-.102z"/></mask><g mask="url(#b)"><g clip-path="url(#c)"><path fill="#808D9E" d="M336.768 250.608q-.001 1.38-.5 2.386-.498 1.005-1.368 1.551-.87.545-1.986.545t-1.986-.546-1.367-1.552q-.498-1.005-.498-2.386t.499-2.386q.5-1.006 1.369-1.551.868-.546 1.986-.545 1.116 0 1.985.546.87.546 1.368 1.551.498 1.006.498 2.387m-1.023 0q0-1.134-.379-1.914-.375-.78-1.018-1.181a2.65 2.65 0 0 0-1.432-.401q-.792 0-1.436.401-.64.4-1.019 1.18-.375.78-.375 1.913t.374 1.913q.38.78 1.018 1.181.644.4 1.436.401a2.64 2.64 0 0 0 1.432-.4q.644-.4 1.019-1.18.38-.78.38-1.913m5.321 4.501q-.92 0-1.585-.435a2.83 2.83 0 0 1-1.022-1.198q-.358-.762-.358-1.743 0-.997.367-1.76.37-.766 1.032-1.197.664-.434 1.551-.434.69 0 1.244.256t.908.716q.352.46.438 1.074h-1.005a1.57 1.57 0 0 0-.512-.793q-.392-.349-1.056-.35-.588 0-1.032.307a2 2 0 0 0-.686.856q-.243.55-.243 1.291 0 .758.238 1.322.243.563.682.873.443.312 1.039.312.393 0 .712-.137a1.46 1.46 0 0 0 .857-1.005h1.005a2.3 2.3 0 0 1-.422 1.044 2.35 2.35 0 0 1-.882.733q-.546.268-1.27.268m6.892-6.68v.852l-3.392-.001v-.852zm-2.402-1.569 1.005.001-.002 6.238q0 .426.124.639a.64.64 0 0 0 .324.282q.2.068.422.068.165 0 .272-.017l.171-.034.204.904a2 2 0 0 1-.286.076 2 2 0 0 1-.464.043q-.426 0-.835-.184a1.66 1.66 0 0 1-.673-.558q-.264-.375-.264-.946z"/><path fill="#E9ECF2" fill-rule="evenodd" d="m337.842 237.972.051-183h1.22l-.051 183z" clip-rule="evenodd"/></g><g clip-path="url(#d)"><path fill="#808D9E" d="M280.844 248.411a1.34 1.34 0 0 0-.622-1.006q-.545-.358-1.338-.358a2.5 2.5 0 0 0-1.014.187 1.6 1.6 0 0 0-.673.515q-.24.329-.239.746 0 .35.166.601.17.247.434.413.264.162.554.269.29.102.533.166l.886.239q.34.09.759.248.421.157.805.43.387.268.639.691.25.422.251 1.035a2.3 2.3 0 0 1-.371 1.279q-.367.57-1.074.907-.704.336-1.709.336-.937 0-1.624-.303a2.6 2.6 0 0 1-1.073-.844 2.4 2.4 0 0 1-.439-1.257h1.091q.042.494.332.818.294.32.742.478.452.153.971.154.606 0 1.087-.196.481-.2.763-.554.28-.358.281-.835 0-.435-.242-.708a1.8 1.8 0 0 0-.639-.443 7 7 0 0 0-.857-.298l-1.074-.308q-1.022-.294-1.619-.839-.596-.546-.596-1.428 0-.733.397-1.279.4-.55 1.074-.851a3.6 3.6 0 0 1 1.513-.307q.843 0 1.5.303a2.6 2.6 0 0 1 1.039.819q.388.52.409 1.18zm5.486 6.683q-.946 0-1.632-.418a2.8 2.8 0 0 1-1.052-1.176q-.368-.759-.366-1.765 0-1.005.367-1.772a2.9 2.9 0 0 1 1.031-1.202q.665-.434 1.551-.434.512 0 1.01.171.499.17.908.554.41.38.652 1.006.242.627.242 1.543v.426l-5.046-.002.001-.869 4.022.001a2.1 2.1 0 0 0-.221-.989 1.7 1.7 0 0 0-.622-.686 1.75 1.75 0 0 0-.946-.252q-.6 0-1.04.298a1.97 1.97 0 0 0-.669.767 2.3 2.3 0 0 0-.235 1.014v.58q0 .741.256 1.257.26.512.72.78.46.264 1.069.265.396 0 .716-.111.324-.115.558-.341.235-.23.363-.571l.971.273q-.153.495-.516.87a2.5 2.5 0 0 1-.895.579 3.3 3.3 0 0 1-1.197.204m4.239 2.319.003-9 .971.001v1.04h.119q.112-.171.307-.435.2-.269.571-.477.376-.213 1.015-.213.827 0 1.457.414.63.413.984 1.172t.353 1.79q0 1.04-.354 1.802-.354.759-.98 1.176-.627.413-1.445.413-.631 0-1.01-.209a1.9 1.9 0 0 1-.584-.482 7 7 0 0 1-.315-.451h-.085l-.001 3.46zm.99-5.727q0 .742.217 1.309.218.563.635.882.418.316 1.023.316.63 0 1.052-.332a2.03 2.03 0 0 0 .64-.904 3.6 3.6 0 0 0 .218-1.269q0-.692-.213-1.245a1.9 1.9 0 0 0-.635-.882q-.422-.328-1.061-.329-.614 0-1.031.311a1.87 1.87 0 0 0-.631.861q-.213.55-.214 1.282"/><path fill="#E9ECF2" fill-rule="evenodd" d="m285.382 237.958.051-183h1.22l-.051 183z" clip-rule="evenodd"/></g><g clip-path="url(#e)"><path fill="#808D9E" d="M221.915 254.94h-1.108l3.207-8.727 1.091.001 3.202 8.728-1.108-.001-2.606-7.347h-.068zm.41-3.409 4.466.001v.938l-4.466-.001zm11.331.736.001-3.869h1.005l-.001 6.546-1.006-.001v-1.108h-.068a2.14 2.14 0 0 1-.716.848q-.486.345-1.227.345-.614 0-1.091-.269a1.9 1.9 0 0 1-.75-.818q-.273-.55-.272-1.385l.001-4.159h1.005l-.001 4.091q0 .716.401 1.142.404.426 1.031.426.375 0 .763-.191.392-.192.656-.588.269-.396.269-1.01m5.488 5.269q-.728 0-1.253-.188a2.7 2.7 0 0 1-.873-.486 2.7 2.7 0 0 1-.55-.64l.801-.562q.136.179.345.409.21.235.571.405.367.175.959.175.793 0 1.309-.383t.515-1.201l.001-1.33h-.085a5 5 0 0 1-.316.443 1.8 1.8 0 0 1-.58.464q-.375.201-1.014.2a2.73 2.73 0 0 1-1.423-.375q-.626-.375-.993-1.091-.362-.716-.361-1.739 0-1.005.354-1.751.354-.75.985-1.159.63-.413 1.457-.413.639 0 1.014.213.38.21.58.478.204.264.315.435h.102v-1.04h.972l-.002 6.733q0 .844-.384 1.372a2.2 2.2 0 0 1-1.023.78q-.639.25-1.423.251m-.033-3.597q.604 0 1.023-.277.417-.276.635-.796.217-.52.217-1.245a3.4 3.4 0 0 0-.212-1.248 1.87 1.87 0 0 0-.631-.848q-.417-.307-1.031-.308-.639 0-1.065.324a1.97 1.97 0 0 0-.635.869q-.21.546-.21 1.21 0 .683.213 1.206.218.52.639.819.426.294 1.057.294"/><path fill="#E9ECF2" fill-rule="evenodd" d="m230.482 237.942.051-183h1.22l-.051 183.001z" clip-rule="evenodd"/></g><g clip-path="url(#f)"><path fill="#808D9E" d="m175.47 246.199 1.056.001-.001 6.238q-.001.835-.308 1.419a2.1 2.1 0 0 1-.865.886q-.558.303-1.317.303a3 3 0 0 1-1.274-.261 2.1 2.1 0 0 1-.877-.75q-.32-.486-.32-1.155h1.04q0 .371.183.648.187.273.511.426.324.154.738.154.456 0 .775-.192a1.2 1.2 0 0 0 .486-.562q.171-.375.171-.916zm7.161 6.053.001-3.869h1.006l-.002 6.546h-1.006l.001-1.108h-.068a2.15 2.15 0 0 1-.717.847q-.485.345-1.227.345-.614 0-1.091-.269a1.87 1.87 0 0 1-.75-.818q-.272-.55-.272-1.385l.001-4.159h1.006l-.001 4.091q0 .716.4 1.142.405.426 1.031.427.376 0 .763-.192.392-.192.656-.588.27-.396.269-1.01m3.855-6.05-.002 8.728-1.006-.001.003-8.727z"/><path fill="#E9ECF2" fill-rule="evenodd" d="m178.022 237.927.051-183h2.44l-.051 183.001z" clip-rule="evenodd"/><path fill="url(#g)" fill-rule="evenodd" d="m156.062 237.921.051-183 48.8.014-.051 183z" clip-rule="evenodd" opacity="0.1"/></g><g clip-path="url(#h)"><path fill="#808D9E" d="m122.754 246.185 1.056.001-.001 6.238q0 .835-.307 1.419a2.1 2.1 0 0 1-.866.886q-.558.303-1.317.303a3 3 0 0 1-1.274-.261 2.1 2.1 0 0 1-.877-.75q-.32-.486-.32-1.155h1.04q0 .37.183.648.188.273.511.426.324.154.738.154.456 0 .775-.192a1.2 1.2 0 0 0 .486-.562q.171-.375.171-.916zm7.161 6.053.001-3.869h1.006l-.002 6.546h-1.005v-1.108h-.068a2.15 2.15 0 0 1-.716.847q-.487.345-1.228.345-.614 0-1.091-.269a1.87 1.87 0 0 1-.749-.818q-.273-.55-.273-1.385l.001-4.159h1.006l-.001 4.091q0 .716.4 1.142.405.426 1.031.427.376 0 .763-.192.392-.192.657-.588.268-.395.268-1.01m3.854-1.26-.001 3.938-1.006-.001.002-6.545h.972l-.001 1.023h.086q.23-.498.699-.801.469-.306 1.21-.307.665.001 1.163.274.499.268.776.818.276.546.276 1.381l-.001 4.159-1.006-.001.001-4.09q.001-.772-.4-1.202-.4-.435-1.099-.435-.482 0-.861.208a1.5 1.5 0 0 0-.592.61q-.218.4-.218.971"/><path fill="#E9ECF2" fill-rule="evenodd" d="m130.442 237.915.051-183h1.22l-.051 183z" clip-rule="evenodd"/></g><g clip-path="url(#i)"><path fill="#808D9E" d="m62.215 246.168 1.262.001 2.964 7.245h.102l2.968-7.244 1.261.001-.002 8.727h-.989l.002-6.631h-.085l-2.73 6.63h-.954l-2.725-6.632h-.086l-.002 6.631h-.988zm12.463 8.884q-.62 0-1.129-.234a1.93 1.93 0 0 1-.805-.687q-.298-.451-.298-1.091 0-.563.222-.911a1.56 1.56 0 0 1 .592-.554q.37-.2.819-.298.45-.102.907-.162a44 44 0 0 1 .968-.115q.374-.042.545-.14.175-.099.175-.341v-.034q0-.631-.345-.98-.34-.35-1.035-.35-.72 0-1.13.315t-.575.673l-.955-.341q.255-.597.682-.929.43-.336.938-.468a4 4 0 0 1 1.006-.136q.315 0 .724.076.413.073.797.303.387.23.643.695.255.464.256 1.244l-.002 4.313h-1.005v-.887h-.051a1.8 1.8 0 0 1-.341.456q-.24.243-.635.413-.396.171-.968.17m.154-.903q.597 0 1.006-.234a1.6 1.6 0 0 0 .835-1.385v-.92q-.064.077-.28.14-.215.06-.495.107a21 21 0 0 1-.963.127 4 4 0 0 0-.733.166 1.26 1.26 0 0 0-.546.337q-.204.221-.204.605 0 .524.387.793.392.264.993.264m5.095 3.206a2 2 0 0 1-.456-.043 1.2 1.2 0 0 1-.277-.077l.256-.886q.366.094.647.069a.78.78 0 0 0 .499-.252q.222-.22.405-.72l.188-.511-2.419-6.58h1.09l1.806 5.216h.069l1.808-5.215h1.09l-2.78 7.5q-.187.507-.465.839-.276.336-.643.498a2 2 0 0 1-.818.162"/><path fill="#E9ECF2" fill-rule="evenodd" d="m74.336 237.899.05-183h1.193l-.05 183z" clip-rule="evenodd"/></g><g clip-path="url(#j)"><path fill="#92929D" d="m12.95 234.363-2.827 7.774H8.97l3.254-8.53h.744zm2.365 7.776-2.828-7.776-.018-.756h.745l3.26 8.532zm-.146-3.158v.925l-4.793-.001v-.926zm3.455-1.962-.002 7.558h-1.09l.003-8.777h.996zm4.271 1.899v.123q0 .692-.164 1.283-.165.586-.48 1.02a2.2 2.2 0 0 1-.769.673 2.2 2.2 0 0 1-1.049.24q-.603 0-1.066-.199a2.1 2.1 0 0 1-.785-.58 3 3 0 0 1-.515-.915 5.3 5.3 0 0 1-.258-1.201v-.656q.071-.704.264-1.26.195-.556.51-.949.323-.398.78-.603a2.5 2.5 0 0 1 1.055-.211q.598 0 1.06.235.463.228.78.656.315.428.474 1.026.163.591.163 1.318m-1.09.123v-.123q0-.474-.099-.891a2.3 2.3 0 0 0-.31-.738 1.5 1.5 0 0 0-.527-.504 1.5 1.5 0 0 0-.768-.188q-.41 0-.715.141-.299.14-.51.38-.21.235-.346.539-.128.299-.193.621v1.518q.117.41.328.773a1.7 1.7 0 0 0 .562.581q.352.217.884.217.44 0 .756-.182.323-.188.528-.509.21-.322.31-.739.1-.422.1-.896m3.643-2.243-.001 5.344-1.084-.001.002-6.34 1.055.001zm1.981-1.031-.006 1.008a1.5 1.5 0 0 0-.258-.035 3 3 0 0 0-.27-.012q-.375 0-.661.117a1.4 1.4 0 0 0-.487.328 1.6 1.6 0 0 0-.316.504 2.4 2.4 0 0 0-.147.633l-.305.175q0-.574.112-1.078.117-.504.358-.89.24-.393.61-.61a1.72 1.72 0 0 1 1.16-.193.8.8 0 0 1 .21.053"/><path fill="#F1F1F5" fill-rule="evenodd" d="m19.436 237.884.05-183h1.193l-.05 183z" clip-rule="evenodd"/></g><g filter="url(#k)"><path fill="#fff" d="M188.06 62.93c.002-6.627 5.376-11.998 12.003-11.996l48 .013c6.628.002 11.999 5.376 11.997 12.003l-.004 14c-.002 6.627-5.376 11.999-12.003 11.997l-60-.017z"/></g><path fill="#1D1E25" d="M222.581 75.079q-1.108 0-1.969-.373-.855-.375-1.342-1.02a2.4 2.4 0 0 1-.477-1.477q-.004-.64.279-1.178t.766-.895a2.5 2.5 0 0 1 1.084-.462v-.07a2.15 2.15 0 0 1-1.273-.8 2.3 2.3 0 0 1-.476-1.457 2.3 2.3 0 0 1 .437-1.402q.444-.616 1.214-.969.77-.358 1.76-.357.979 0 1.745.358.77.354 1.213.97.447.616.447 1.402a2.3 2.3 0 0 1-.493 1.457 2.15 2.15 0 0 1-1.258.8v.07q.597.099 1.074.462.481.358.765.895.288.536.288 1.178a2.4 2.4 0 0 1-.488 1.477q-.486.645-1.342 1.019-.85.372-1.954.372m0-1.422q.572 0 .995-.194.422-.198.656-.556t.239-.825a1.55 1.55 0 0 0-.253-.86 1.67 1.67 0 0 0-.671-.592 2.1 2.1 0 0 0-.965-.214q-.546 0-.974.213-.428.214-.677.591a1.5 1.5 0 0 0-.238.86 1.44 1.44 0 0 0 .228.826q.233.353.656.552.428.199 1.004.2m.002-4.638q.467 0 .825-.19.363-.187.572-.526.208-.338.214-.78a1.45 1.45 0 0 0-.209-.766 1.35 1.35 0 0 0-.566-.512 1.8 1.8 0 0 0-.836-.184 1.9 1.9 0 0 0-.85.183q-.363.18-.567.512a1.4 1.4 0 0 0-.194.766q-.005.443.199.78.209.333.571.527.369.19.841.19m5.416 5.922V73.61l3.536-3.464q.507-.513.845-.91.339-.398.508-.77.168-.373.169-.796 0-.481-.219-.825a1.45 1.45 0 0 0-.601-.537 1.94 1.94 0 0 0-.87-.19q-.502 0-.88.21-.378.203-.587.58a1.9 1.9 0 0 0-.204.9h-1.755q0-.97.443-1.685a3 3 0 0 1 1.218-1.109q.781-.392 1.79-.392 1.024 0 1.8.383.775.384 1.203 1.05.432.666.432 1.521 0 .572-.219 1.124t-.771 1.222q-.547.672-1.537 1.626l-1.755 1.784v.07l4.434.001v1.541zm12.458.198q-1.228 0-2.107-.623-.875-.626-1.347-1.805-.467-1.182-.467-2.848.006-1.665.473-2.834.474-1.173 1.348-1.79.88-.616 2.103-.615 1.224 0 2.103.617.88.616 1.347 1.79.472 1.173.472 2.834 0 1.67-.474 2.853-.467 1.178-1.347 1.8-.876.62-2.104.62m.001-1.557q.954 0 1.507-.939.557-.945.557-2.779 0-1.213-.253-2.038-.253-.826-.715-1.243a1.57 1.57 0 0 0-1.094-.423q-.95 0-1.502.944-.552.939-.557 2.76-.006 1.217.243 2.047.253.831.715 1.254.463.417 1.099.417"/><rect width="10" height="10" x="199.06" y="65.0757" fill="#2280FF" rx="2" transform="rotate(.016 199.06 65.076)"/><path stroke="#2280FF" stroke-linecap="round" stroke-width="3" d="M-8.963 148.763c4.498 1.847 15.133 6.996 21.687 12.814 8.192 7.272 34.7 15.241 50.612-2.063s23.143-23.533 34.711-23.53c11.569.003 19.282-2.418 32.301-20.415s17.266-26.692 33.266-26.645c15.468.045 23.295 10.737 26.989 16.623l8.672 13.503c3.533 5.655 13.035 15.234 26.949 16.257s24.613-4.149 35.712-12.778c10.336-8.037 28.443-16.608 43.863.012 12.336 13.296 18.633 18.006 20.24 18.699"/><path stroke="#F55" stroke-linecap="round" stroke-width="3" d="M-32.965 155.49c5.21 1.347 17.528 5.099 25.12 9.337 9.489 5.297 40.192 11.105 58.619-1.497 18.426-12.602 26.802-17.139 40.2-17.135s22.332-1.759 37.409-14.866 19.994-19.441 38.526-19.405c17.915.035 26.981 7.824 31.26 12.112l10.046 9.836c4.093 4.12 15.099 11.098 31.214 11.845 16.116.748 28.507-3.019 41.361-9.303 11.97-5.853 32.941-12.094 50.803.014 14.289 9.686 21.583 13.117 23.443 13.622"/></g><path fill="#fff" d="m-.046 50.878 59.78.017-.056 203-59.78-.017z"/><g clip-path="url(#l)"><path fill="#808D9E" d="m15.513 60.155-.003 8.727h-1.057l.003-7.62h-.052l-2.13 1.415v-1.074l2.182-1.448zm3.548 6.342-.017-1.244h.205l2.864-2.914h1.245l-3.052 3.085h-.085zm-.938 2.386.002-8.727h1.006l-.002 8.727zm4.16.001-2.557-3.239.716-.699 3.119 3.939z"/></g><g clip-path="url(#m)"><path fill="#808D9E" d="M22.562 239.004q-.964 0-1.64-.525-.678-.528-1.036-1.53-.357-1.006-.357-2.429 0-1.415.358-2.416.363-1.006 1.04-1.534.682-.532 1.637-.532t1.632.533q.682.529 1.04 1.534.36 1.001.361 2.417 0 1.423-.359 2.428-.358 1.002-1.035 1.53-.679.524-1.641.524m0-.938q.954 0 1.483-.92t.53-2.625q0-1.133-.243-1.93-.238-.797-.69-1.215a1.53 1.53 0 0 0-1.078-.418q-.946 0-1.479.933-.533.929-.533 2.629 0 1.134.238 1.926.238.793.685 1.207.452.413 1.087.413"/></g><g clip-path="url(#n)"><path fill="#808D9E" d="M2.644 204.879v-.767l2.882-3.153q.507-.554.836-.962.328-.413.486-.776.162-.366.162-.767 0-.46-.221-.797a1.44 1.44 0 0 0-.597-.52 1.9 1.9 0 0 0-.852-.183q-.503 0-.878.208a1.44 1.44 0 0 0-.575.575q-.2.371-.201.87l-1.006-.001q0-.767.354-1.346a2.46 2.46 0 0 1 .964-.903q.614-.324 1.376-.324.768 0 1.36.325.591.324.928.873.337.55.337 1.223 0 .482-.175.942-.171.456-.597 1.019a18 18 0 0 1-1.173 1.363l-1.96 2.096v.068l4.056.001v.938zm10.198.122q-.963 0-1.64-.524-.678-.53-1.035-1.53-.359-1.007-.357-2.43 0-1.414.358-2.416.363-1.005 1.04-1.533.682-.533 1.637-.533.954 0 1.632.534.68.528 1.04 1.534.36 1.002.36 2.416 0 1.424-.358 2.429-.358 1.001-1.036 1.53-.678.523-1.64.523m0-.937q.955 0 1.484-.92.529-.921.529-2.625 0-1.133-.242-1.931-.24-.797-.69-1.214a1.52 1.52 0 0 0-1.078-.418q-.946 0-1.48.933-.532.928-.533 2.629 0 1.133.238 1.926.24.792.686 1.206.451.414 1.087.414m7.586.939q-.963 0-1.64-.524-.678-.53-1.035-1.53-.358-1.007-.358-2.429 0-1.415.359-2.417.362-1.005 1.04-1.533.682-.533 1.637-.533.954 0 1.631.534.682.528 1.04 1.534.362 1.002.361 2.416 0 1.424-.358 2.429-.358 1.002-1.036 1.53-.678.524-1.64.523m0-.937q.955 0 1.484-.92.528-.921.529-2.625 0-1.134-.243-1.93-.238-.798-.69-1.215a1.52 1.52 0 0 0-1.078-.418q-.945 0-1.479.933-.533.928-.533 2.629 0 1.134.238 1.926.239.794.686 1.206.45.414 1.086.414"/></g><g clip-path="url(#o)"><path fill="#808D9E" d="M2.45 169.089v-.869l3.837-6.067h.63v1.347h-.426l-2.899 4.584v.068l5.165.002v.937zm4.107 1.791v-2.054l.001-.405.002-6.268h1.005l-.002 8.728zm6.728.121q-.963 0-1.64-.524-.678-.53-1.035-1.53-.359-1.007-.357-2.429 0-1.416.358-2.416.363-1.006 1.04-1.534.682-.533 1.637-.533.954 0 1.632.534.68.528 1.04 1.534.36 1.002.36 2.416 0 1.424-.358 2.429-.358 1.002-1.036 1.53-.678.524-1.64.523m0-.937q.955 0 1.484-.92.528-.921.529-2.625 0-1.134-.242-1.93-.24-.798-.69-1.215a1.52 1.52 0 0 0-1.078-.418q-.946 0-1.48.933-.532.928-.533 2.629 0 1.134.238 1.926.24.794.686 1.206.451.414 1.087.414m7.586.94q-.963-.001-1.64-.525-.678-.529-1.036-1.53-.357-1.006-.357-2.429 0-1.415.359-2.416.363-1.006 1.04-1.534.682-.533 1.637-.532.954 0 1.632.533.68.529 1.039 1.534.362 1.002.361 2.416 0 1.424-.358 2.429-.358 1.002-1.036 1.53-.678.524-1.64.524m0-.938q.955 0 1.484-.92.528-.921.529-2.625 0-1.134-.243-1.93-.239-.798-.69-1.215a1.52 1.52 0 0 0-1.078-.418q-.945 0-1.479.933-.533.928-.533 2.629 0 1.134.238 1.926.239.793.686 1.206.45.414 1.086.414"/></g><g clip-path="url(#p)"><path fill="#808D9E" d="M5.561 136.999a3.3 3.3 0 0 1-1.074-.205 2.6 2.6 0 0 1-.98-.66q-.442-.47-.711-1.266-.268-.801-.268-2.012 0-1.158.218-2.054.217-.898.631-1.512.414-.618.997-.937.589-.32 1.326-.32a2.8 2.8 0 0 1 1.304.295q.575.29.937.81.361.52.468 1.197H7.37a1.93 1.93 0 0 0-.562-.976q-.417-.388-1.107-.388-1.015 0-1.599.882-.58.882-.584 2.475h.068a2.56 2.56 0 0 1 2.148-1.158q.75 0 1.372.375.622.371.997 1.027.375.653.375 1.496a3.1 3.1 0 0 1-.363 1.483 2.76 2.76 0 0 1-1.019 1.065q-.652.392-1.534.383m0-.937q.538 0 .963-.268.43-.268.678-.72.252-.453.252-1.006 0-.541-.243-.984a1.85 1.85 0 0 0-.66-.712 1.74 1.74 0 0 0-.955-.265q-.404 0-.754.162-.349.158-.614.434-.26.278-.409.635-.15.354-.15.746 0 .52.243.972.248.451.673.729.431.276.976.277m7.523.939q-.963 0-1.64-.524-.678-.53-1.036-1.53-.357-1.007-.357-2.429 0-1.415.359-2.417.362-1.005 1.04-1.533.681-.533 1.636-.533t1.632.534q.682.528 1.04 1.534.36 1.002.361 2.416 0 1.424-.358 2.429-.36 1.002-1.036 1.53-.679.524-1.641.523m0-.937q.954 0 1.483-.92.53-.921.53-2.625 0-1.133-.243-1.931-.239-.797-.69-1.214a1.52 1.52 0 0 0-1.078-.418q-.946 0-1.479.933-.533.928-.533 2.629 0 1.134.238 1.926.238.793.686 1.206.45.414 1.086.414m7.586.939q-.965 0-1.64-.524-.68-.53-1.036-1.53-.358-1.006-.357-2.429 0-1.416.358-2.416.363-1.006 1.04-1.534.682-.533 1.637-.532.954 0 1.632.533.68.529 1.04 1.534.36 1.002.36 2.416 0 1.424-.358 2.429-.358 1.002-1.036 1.53-.677.524-1.64.523m0-.937q.954 0 1.483-.92.529-.921.53-2.625 0-1.134-.243-1.93-.24-.798-.69-1.215a1.52 1.52 0 0 0-1.078-.418q-.945 0-1.48.933-.532.928-.533 2.629 0 1.134.239 1.926.238.793.685 1.206.452.414 1.087.414"/></g><g clip-path="url(#q)"><path fill="#808D9E" d="M5.468 102.999q-.877 0-1.551-.311a2.54 2.54 0 0 1-1.044-.866 2.17 2.17 0 0 1-.37-1.261 2.32 2.32 0 0 1 .823-1.81q.388-.32.865-.406v-.05a1.68 1.68 0 0 1-.997-.704 2.13 2.13 0 0 1-.366-1.24q-.004-.665.337-1.189.34-.525.938-.827a3 3 0 0 1 1.368-.302q.758 0 1.355.303.596.303.937.827.345.524.349 1.19-.005.694-.38 1.24-.37.54-.984.702v.051q.473.086.852.405.379.315.605.789.225.468.23 1.023-.005.707-.384 1.261-.375.549-1.044.865-.666.31-1.539.31m0-.937q.593 0 1.023-.192.43-.191.665-.541.234-.349.239-.818a1.57 1.57 0 0 0-.256-.873 1.74 1.74 0 0 0-.685-.597 2.15 2.15 0 0 0-.985-.218q-.558 0-.997.217-.435.218-.686.597a1.54 1.54 0 0 0-.243.873q-.005.469.225.818.235.35.67.542.434.192 1.03.192m.002-4.142q.468 0 .83-.188.368-.187.576-.524.21-.336.213-.788a1.46 1.46 0 0 0-.208-.771 1.35 1.35 0 0 0-.567-.512 1.85 1.85 0 0 0-.844-.183q-.49 0-.856.183a1.3 1.3 0 0 0-.567.511 1.4 1.4 0 0 0-.196.771q-.005.451.2.789.208.336.575.524.366.188.843.188M13 103q-.964 0-1.641-.524-.678-.53-1.035-1.53-.359-1.006-.357-2.43 0-1.414.358-2.416.363-1.005 1.04-1.533.682-.533 1.637-.533.954 0 1.632.534.68.528 1.04 1.534.36 1.002.36 2.416 0 1.425-.358 2.429-.358 1.001-1.036 1.53-.678.524-1.64.523m0-.937q.954 0 1.483-.92.528-.921.53-2.625 0-1.135-.243-1.93-.24-.798-.69-1.215a1.52 1.52 0 0 0-1.078-.418q-.946 0-1.48.933-.531.928-.533 2.629 0 1.133.238 1.926.24.793.686 1.206.451.414 1.087.414m7.585.939q-.963 0-1.64-.524-.678-.53-1.035-1.53-.358-1.006-.358-2.43 0-1.414.359-2.416.363-1.005 1.04-1.533.682-.533 1.637-.532.954 0 1.632.533.68.529 1.039 1.534.362 1.002.361 2.416 0 1.424-.358 2.429-.358 1.002-1.036 1.53-.678.524-1.64.523m0-.937q.955 0 1.484-.92.529-.921.529-2.625 0-1.135-.243-1.93-.238-.798-.69-1.215a1.52 1.52 0 0 0-1.078-.418q-.945 0-1.479.933-.533.928-.533 2.629 0 1.134.238 1.926.24.793.686 1.206.451.414 1.086.414"/></g><g filter="url(#r)"><rect width="14" height="14" x="172.054" y="84.9258" fill="#2280FF" rx="7" transform="rotate(.016 172.054 84.926)"/><rect width="12" height="12" x="173.054" y="85.9261" stroke="#fff" stroke-width="2" rx="6" transform="rotate(.016 173.054 85.926)"/></g><rect width="12.2" height="10" x="169.543" y="15.9253" fill="#F55" rx="2" transform="rotate(.016 169.543 15.925)"/><path fill="#1D1E25" d="M200.929 18.934h-1.233a2.57 2.57 0 0 0-1.039-1.612 2.8 2.8 0 0 0-.85-.418 3.4 3.4 0 0 0-.974-.139q-.925 0-1.676.467-.746.466-1.188 1.377-.438.909-.439 2.232 0 1.322.437 2.232.443.91 1.188 1.378a3.1 3.1 0 0 0 1.675.467q.507 0 .975-.139t.85-.412q.388-.279.657-.68.273-.409.383-.935h1.233q-.14.78-.508 1.397a3.8 3.8 0 0 1-2.143 1.7 4.6 4.6 0 0 1-1.447.223q-1.302 0-2.316-.637-1.015-.637-1.596-1.81-.58-1.174-.581-2.785.001-1.61.583-2.783.582-1.174 1.596-1.81t2.317-.635q.77 0 1.447.224.681.224 1.227.656.547.427.915 1.045.367.61.507 1.397m4.433 7.16q-1.034 0-1.814-.493a3.35 3.35 0 0 1-1.213-1.377q-.432-.886-.432-2.068 0-1.194.433-2.083a3.34 3.34 0 0 1 1.214-1.382q.78-.492 1.814-.492t1.81.493a3.3 3.3 0 0 1 1.213 1.382q.437.89.437 2.083-.001 1.185-.439 2.069a3.3 3.3 0 0 1-1.213 1.376q-.775.492-1.81.492m.001-1.054q.785 0 1.292-.402a2.37 2.37 0 0 0 .751-1.059 4 4 0 0 0 .244-1.422q0-.765-.243-1.427a2.4 2.4 0 0 0-.75-1.069q-.507-.408-1.293-.408t-1.293.407a2.4 2.4 0 0 0-.751 1.07q-.243.66-.244 1.426 0 .765.244 1.422.243.656.75 1.059t1.293.403m4.751.896.002-7.636h1.133v1.193h.099q.238-.611.771-.949.532-.343 1.278-.343.756 0 1.258.344.507.338.79.95h.079q.293-.592.881-.94.587-.352 1.407-.352 1.024 0 1.675.641.651.637.651 1.984l-.002 5.111h-1.173l.001-5.111q.001-.845-.462-1.208a1.7 1.7 0 0 0-1.088-.364q-.805 0-1.248.487-.443.483-.443 1.223l-.002 4.972h-1.193l.002-5.23q0-.652-.423-1.05-.422-.402-1.088-.403-.457 0-.855.244a1.85 1.85 0 0 0-.637.676 2 2 0 0 0-.239.989l-.001 4.773zm11.667 2.867.003-10.5h1.133v1.213h.139q.13-.198.358-.506.234-.315.666-.557.438-.248 1.184-.248.964 0 1.7.482.735.483 1.148 1.368t.412 2.088q0 1.214-.413 2.103-.413.885-1.144 1.372-.73.482-1.686.482-.735 0-1.178-.244a2.2 2.2 0 0 1-.681-.562 8 8 0 0 1-.367-.527h-.1l-.001 4.037zm1.155-6.681q0 .864.253 1.526.254.656.741 1.03.486.367 1.193.367.736 0 1.228-.387.497-.393.746-1.054.254-.666.254-1.481 0-.806-.248-1.452a2.25 2.25 0 0 0-.741-1.03q-.492-.382-1.238-.382-.715 0-1.203.362-.487.358-.736 1.004-.249.642-.249 1.497m10.078 3.98q-1.103 0-1.904-.488a3.27 3.27 0 0 1-1.227-1.373q-.427-.885-.427-2.058t.428-2.068q.433-.9 1.203-1.402.777-.507 1.81-.506.597 0 1.178.199.582.199 1.059.647.477.443.761 1.173.283.73.282 1.8v.497l-5.886-.002v-1.014l4.693.002a2.5 2.5 0 0 0-.258-1.154 1.95 1.95 0 0 0-.725-.8q-.468-.294-1.104-.294-.701 0-1.213.347a2.3 2.3 0 0 0-.781.895 2.6 2.6 0 0 0-.274 1.183v.676q0 .865.298 1.467.303.597.84.91.537.309 1.248.309.462 0 .835-.13.378-.133.651-.397.275-.268.423-.666l1.134.319a2.5 2.5 0 0 1-.602 1.014q-.423.432-1.045.675-.621.24-1.397.239m7.77-7.794v.995l-3.957-.001v-.995zm-2.803-1.83h1.173l-.002 7.279q0 .497.144.746a.74.74 0 0 0 .378.328q.234.08.492.08.193 0 .318-.02l.199-.04.238 1.054q-.118.045-.333.09-.213.049-.542.049-.497 0-.974-.214a1.93 1.93 0 0 1-.785-.652q-.309-.437-.308-1.103zm4.066 9.467.002-7.636h1.174l-.003 7.636zm.599-8.909a.83.83 0 0 1-.591-.234.75.75 0 0 1-.244-.561q0-.329.244-.562a.83.83 0 0 1 .592-.234q.343 0 .586.234a.74.74 0 0 1 .249.562.74.74 0 0 1-.249.562.82.82 0 0 1-.587.233m5.547 1.274-.001.995-3.957-.001v-.995zm-2.804-1.83h1.173l-.002 7.279q0 .497.144.746.15.243.378.328.234.08.492.08.194 0 .318-.02l.199-.04.239 1.054q-.12.045-.334.09-.214.05-.541.049-.498 0-.975-.214a1.94 1.94 0 0 1-.785-.652q-.308-.437-.308-1.103zm7.087 9.627q-1.035 0-1.815-.493a3.35 3.35 0 0 1-1.213-1.377q-.432-.886-.432-2.068.001-1.194.433-2.083a3.34 3.34 0 0 1 1.214-1.382q.78-.492 1.815-.492t1.809.493q.78.492 1.213 1.382.437.89.437 2.084 0 1.183-.438 2.068a3.3 3.3 0 0 1-1.214 1.376q-.775.492-1.809.492m0-1.054q.784 0 1.293-.402.507-.403.751-1.059.243-.656.244-1.422 0-.765-.244-1.427a2.4 2.4 0 0 0-.75-1.069q-.507-.408-1.293-.408t-1.292.408a2.4 2.4 0 0 0-.751 1.068 4.1 4.1 0 0 0-.244 1.427q0 .765.243 1.422t.75 1.059 1.293.403m4.751.896.002-7.636h1.133v1.154h.08q.209-.567.756-.92a2.2 2.2 0 0 1 1.233-.352q.13 0 .323.005.194.004.293.015v1.193a4 4 0 0 0-.274-.045 3 3 0 0 0-.442-.035q-.557 0-.994.233a1.76 1.76 0 0 0-.687.637 1.7 1.7 0 0 0-.249.92l-.001 4.832z"/><rect width="12.2" height="10" x="1.18335" y="15.8784" fill="#2280FF" rx="2" transform="rotate(.016 1.183 15.878)"/><path fill="#1D1E25" d="M24.376 15.703h1.472l3.458 8.453h.12l3.462-8.45h1.471l-.003 10.181h-1.153l.002-7.736h-.1l-3.183 7.735h-1.114l-3.18-7.737h-.099l-.002 7.736h-1.153zm12.548 13.049q-.297 0-.532-.05a1.4 1.4 0 0 1-.323-.09l.299-1.034q.428.11.756.08a.9.9 0 0 0 .581-.293q.259-.258.473-.84l.219-.597-2.822-7.677h1.273l2.106 6.086h.08l2.11-6.084h1.272l-3.244 8.75q-.22.59-.542.979a2 2 0 0 1-.751.581q-.423.189-.955.189m9.975.003.003-10.5h1.134v1.213h.139q.129-.2.358-.507.233-.313.666-.557.438-.248 1.183-.248.965 0 1.7.483.736.482 1.148 1.367.413.885.413 2.088 0 1.214-.414 2.103-.412.885-1.143 1.372-.732.483-1.686.482-.735 0-1.178-.244a2.2 2.2 0 0 1-.681-.562 8 8 0 0 1-.368-.527h-.1v4.037zm1.155-6.682q0 .865.254 1.526.253.657.74 1.03.487.368 1.193.368.736 0 1.228-.388.497-.392.746-1.053.254-.666.254-1.482 0-.805-.248-1.452a2.24 2.24 0 0 0-.74-1.029q-.492-.383-1.238-.383-.716 0-1.204.363-.486.357-.736 1.004-.248.64-.248 1.496m6.877 3.82.002-7.636h1.134v1.153h.08q.207-.566.755-.92a2.2 2.2 0 0 1 1.233-.352q.13 0 .323.005.194.006.294.015v1.194q-.06-.015-.274-.045a3 3 0 0 0-.443-.035q-.556 0-.994.233a1.76 1.76 0 0 0-.686.636 1.7 1.7 0 0 0-.25.92v4.832zm7.58.161q-1.035 0-1.815-.492a3.34 3.34 0 0 1-1.213-1.378q-.432-.886-.432-2.068 0-1.194.433-2.083a3.34 3.34 0 0 1 1.213-1.382q.78-.492 1.815-.492t1.81.493q.78.493 1.212 1.383.438.89.437 2.083 0 1.183-.438 2.068a3.3 3.3 0 0 1-1.213 1.377q-.775.491-1.81.491m0-1.054q.785 0 1.292-.402t.751-1.059q.244-.655.244-1.422 0-.765-.243-1.427a2.4 2.4 0 0 0-.75-1.069q-.508-.407-1.293-.408-.786 0-1.293.408a2.4 2.4 0 0 0-.75 1.068q-.245.662-.245 1.427 0 .766.243 1.422.244.656.75 1.06.508.402 1.293.402m7.634 1.056q-.954 0-1.685-.482-.731-.488-1.143-1.373-.413-.89-.413-2.103 0-1.203.414-2.088.413-.885 1.148-1.367.737-.482 1.7-.482.746 0 1.18.25.436.244.665.556.234.309.363.508h.1v-3.759h1.174l-.003 10.182H72.51v-1.173h-.138q-.13.208-.369.526-.239.314-.68.562-.444.244-1.18.243m.16-1.054q.706 0 1.192-.367.487-.373.742-1.03.253-.66.254-1.525 0-.856-.249-1.497-.248-.645-.735-1.004-.487-.363-1.203-.364-.746 0-1.243.383a2.3 2.3 0 0 0-.741 1.029q-.244.646-.244 1.451 0 .816.248 1.482.253.661.745 1.054.498.388 1.233.388m9.965-2.224.001-4.514h1.174l-.003 7.636H80.27v-1.293h-.079q-.27.582-.835.99-.568.402-1.433.402a2.55 2.55 0 0 1-1.272-.314 2.2 2.2 0 0 1-.875-.954q-.318-.642-.318-1.616l.002-4.853h1.173l-.001 4.773q0 .835.467 1.333.472.497 1.203.497.437 0 .89-.223a1.94 1.94 0 0 0 .766-.686q.313-.462.313-1.178m5.924 3.283q-1.074 0-1.85-.508a3.3 3.3 0 0 1-1.192-1.397q-.418-.89-.418-2.034 0-1.163.429-2.053a3.4 3.4 0 0 1 1.203-1.396q.775-.507 1.81-.507.805 0 1.452.299.645.298 1.058.835t.512 1.253h-1.173q-.134-.523-.597-.925-.456-.408-1.233-.408a2.06 2.06 0 0 0-1.203.358q-.512.353-.8.999-.285.641-.284 1.506 0 .885.278 1.541.284.656.795 1.02.517.363 1.213.363.458 0 .83-.16.374-.158.632-.456.258-.3.368-.716h1.173q-.099.677-.492 1.218a2.75 2.75 0 0 1-1.03.855q-.636.313-1.481.313m7.54-7.794v.995l-3.957-.001v-.995zm-2.803-1.83h1.174l-.002 7.279q0 .497.144.746.149.243.377.328.234.08.493.08.194 0 .318-.02l.199-.04.238 1.054q-.12.045-.333.09a2.5 2.5 0 0 1-.542.049 2.4 2.4 0 0 1-.974-.214 1.94 1.94 0 0 1-.786-.652q-.308-.437-.308-1.103z"/></g><defs><clipPath id="a"><path fill="#fff" d="m.578.878 366 .101-.072 260-366-.1z"/></clipPath><clipPath id="c"><path fill="#fff" d="m325.693 54.968 26.84.008-.057 206-26.84-.008z"/></clipPath><clipPath id="d"><path fill="#fff" d="m272.013 54.954 29.28.008-.057 206-29.28-.008z"/></clipPath><clipPath id="e"><path fill="#fff" d="m217.113 54.939 30.5.008-.057 206-30.5-.009z"/></clipPath><clipPath id="f"><path fill="#fff" d="m156.113 54.921 48.8.014-.057 206-48.8-.014z"/></clipPath><clipPath id="h"><path fill="#fff" d="m114.633 54.91 29.28.008-.057 206-29.28-.008z"/></clipPath><clipPath id="i"><path fill="#fff" d="m57.293 54.894 32.94.01-.057 206-32.94-.01z"/></clipPath><clipPath id="j"><path fill="#fff" d="m4.833 54.88 28.06.008-.057 206-28.06-.008z"/></clipPath><clipPath id="l"><path fill="#fff" d="m10.933 52.881 17.08.005-.007 24-17.08-.005z"/></clipPath><clipPath id="m"><path fill="#fff" d="m18.206 222.883 10.98.003-.006 24-10.98-.003z"/></clipPath><clipPath id="n"><path fill="#fff" d="m-.084 188.878 29.28.008-.007 24-29.28-.008z"/></clipPath><clipPath id="o"><path fill="#fff" d="m-.075 154.878 29.28.008-.007 24-29.28-.008z"/></clipPath><clipPath id="p"><path fill="#fff" d="m-.066 120.878 29.28.008-.006 24-29.28-.008z"/></clipPath><clipPath id="q"><path fill="#fff" d="m-.056 86.878 29.28.008-.007 24-29.28-.008z"/></clipPath><filter id="k" width="116.007" height="82.0132" x="166.053" y="32.9336" color-interpolation-filters="sRGB" filterUnits="userSpaceOnUse"><feFlood flood-opacity="0" result="BackgroundImageFix"/><feColorMatrix in="SourceAlpha" result="hardAlpha" values="0 0 0 0 0 0 0 0 0 0 0 0 0 0 0 0 0 0 127 0"/><feOffset dy="4"/><feGaussianBlur stdDeviation="11"/><feComposite in2="hardAlpha" operator="out"/><feColorMatrix values="0 0 0 0 0.624722 0 0 0 0 0.6401 0 0 0 0 0.720833 0 0 0 0.25 0"/><feBlend in2="BackgroundImageFix" mode="multiply" result="effect1_dropShadow_1_2553"/><feBlend in="SourceGraphic" in2="effect1_dropShadow_1_2553" result="shape"/></filter><filter id="r" width="22" height="22" x="168.052" y="82.9277" color-interpolation-filters="sRGB" filterUnits="userSpaceOnUse"><feFlood flood-opacity="0" result="BackgroundImageFix"/><feColorMatrix in="SourceAlpha" result="hardAlpha" values="0 0 0 0 0 0 0 0 0 0 0 0 0 0 0 0 0 0 127 0"/><feOffset dy="2"/><feGaussianBlur stdDeviation="2"/><feColorMatrix values="0 0 0 0 0.268354 0 0 0 0 0.268354 0 0 0 0 0.31049 0 0 0 0.15 0"/><feBlend in2="BackgroundImageFix" result="effect1_dropShadow_1_2553"/><feBlend in="SourceGraphic" in2="effect1_dropShadow_1_2553" result="shape"/></filter><linearGradient id="g" x1="180.513" x2="180.462" y1="54.9281" y2="237.928" gradientUnits="userSpaceOnUse"><stop stop-color="#2A85FF"/><stop offset="1" stop-color="#2A85FF" stop-opacity="0"/></linearGradient></defs></svg>