<svg width="228" height="136" viewBox="0 0 228 136" fill="none" xmlns="http://www.w3.org/2000/svg">
<g filter="url(#filter0_d_1_3787)">
<rect x="24" y="8" width="180" height="88" rx="8" fill="white" shape-rendering="crispEdges"/>
<path d="M40.7457 24.8182H42.8288L45.3196 29.3224H45.419L47.9098 24.8182H49.9929L46.2891 31.2017V35H44.4496V31.2017L40.7457 24.8182ZM53.1287 35.1491C52.383 35.1491 51.7367 34.9851 51.1898 34.657C50.6429 34.3288 50.2187 33.8698 49.9171 33.2798C49.6188 32.6899 49.4696 32.0005 49.4696 31.2116C49.4696 30.4228 49.6188 29.7318 49.9171 29.1385C50.2187 28.5452 50.6429 28.0845 51.1898 27.7564C51.7367 27.4283 52.383 27.2642 53.1287 27.2642C53.8745 27.2642 54.5208 27.4283 55.0676 27.7564C55.6145 28.0845 56.0371 28.5452 56.3354 29.1385C56.637 29.7318 56.7878 30.4228 56.7878 31.2116C56.7878 32.0005 56.637 32.6899 56.3354 33.2798C56.0371 33.8698 55.6145 34.3288 55.0676 34.657C54.5208 34.9851 53.8745 35.1491 53.1287 35.1491ZM53.1387 33.7074C53.543 33.7074 53.8811 33.5964 54.1529 33.3743C54.4247 33.1489 54.6268 32.8473 54.7594 32.4695C54.8953 32.0916 54.9632 31.6707 54.9632 31.2067C54.9632 30.7393 54.8953 30.3168 54.7594 29.9389C54.6268 29.5578 54.4247 29.2545 54.1529 29.0291C53.8811 28.8037 53.543 28.6911 53.1387 28.6911C52.7244 28.6911 52.3797 28.8037 52.1046 29.0291C51.8328 29.2545 51.629 29.5578 51.4931 29.9389C51.3605 30.3168 51.2942 30.7393 51.2942 31.2067C51.2942 31.6707 51.3605 32.0916 51.4931 32.4695C51.629 32.8473 51.8328 33.1489 52.1046 33.3743C52.3797 33.5964 52.7244 33.7074 53.1387 33.7074ZM61.6364 38.0227C60.9901 38.0227 60.4349 37.9349 59.9709 37.7592C59.5069 37.5869 59.134 37.3549 58.8523 37.0632C58.5705 36.7715 58.375 36.4484 58.2656 36.0938L59.8864 35.701C59.9593 35.8501 60.0653 35.9976 60.2045 36.1435C60.3438 36.2926 60.531 36.4152 60.7663 36.5114C61.005 36.6108 61.3049 36.6605 61.6662 36.6605C62.1766 36.6605 62.5992 36.5362 62.9339 36.2876C63.2687 36.0424 63.4361 35.638 63.4361 35.0746V33.6278H63.3466C63.2538 33.8134 63.1179 34.004 62.9389 34.1996C62.7633 34.3951 62.5296 34.5592 62.2379 34.6918C61.9496 34.8243 61.5866 34.8906 61.1491 34.8906C60.5625 34.8906 60.0305 34.7531 59.5533 34.478C59.0793 34.1996 58.7015 33.7853 58.4197 33.2351C58.1413 32.6816 58.0021 31.9889 58.0021 31.157C58.0021 30.3184 58.1413 29.6108 58.4197 29.0341C58.7015 28.4541 59.081 28.0149 59.5582 27.7166C60.0355 27.415 60.5675 27.2642 61.1541 27.2642C61.6016 27.2642 61.9695 27.3404 62.2578 27.4929C62.5495 27.642 62.7815 27.8227 62.9538 28.0348C63.1262 28.2436 63.2571 28.4408 63.3466 28.6264H63.446V27.3636H65.2209V35.1243C65.2209 35.7772 65.0651 36.3175 64.7536 36.745C64.442 37.1726 64.0161 37.4924 63.4759 37.7045C62.9356 37.9167 62.3224 38.0227 61.6364 38.0227ZM61.6513 33.4787C62.0324 33.4787 62.3572 33.3859 62.6257 33.2003C62.8942 33.0147 63.098 32.7479 63.2372 32.3999C63.3764 32.0518 63.446 31.6342 63.446 31.147C63.446 30.6664 63.3764 30.2455 63.2372 29.8842C63.1013 29.523 62.8991 29.2429 62.6307 29.044C62.3655 28.8419 62.0391 28.7408 61.6513 28.7408C61.2502 28.7408 60.9155 28.8452 60.647 29.054C60.3786 29.2628 60.1764 29.5495 60.0405 29.9141C59.9046 30.2753 59.8366 30.6863 59.8366 31.147C59.8366 31.6143 59.9046 32.0237 60.0405 32.375C60.1797 32.723 60.3835 32.9948 60.652 33.1903C60.9238 33.3826 61.2569 33.4787 61.6513 33.4787ZM67.161 27.3636H68.9608V35.4375C68.9608 35.9877 68.8564 36.4418 68.6475 36.7997C68.4387 37.1577 68.1371 37.4245 67.7427 37.6001C67.3483 37.7758 66.8694 37.8636 66.3059 37.8636C66.2396 37.8636 66.1783 37.862 66.122 37.8587C66.0656 37.8587 66.0043 37.857 65.938 37.8537V36.3871C65.9877 36.3904 66.0325 36.392 66.0723 36.392C66.112 36.3954 66.1535 36.397 66.1966 36.397C66.5413 36.397 66.7882 36.3125 66.9373 36.1435C67.0865 35.9777 67.161 35.7341 67.161 35.4126V27.3636ZM68.0559 26.2798C67.7676 26.2798 67.5207 26.1854 67.3152 25.9964C67.113 25.8042 67.0119 25.5739 67.0119 25.3054C67.0119 25.0336 67.113 24.8033 67.3152 24.6143C67.5207 24.4221 67.7676 24.326 68.0559 24.326C68.341 24.326 68.5846 24.4221 68.7868 24.6143C68.9922 24.8033 69.095 25.0336 69.095 25.3054C69.095 25.5739 68.9922 25.8042 68.7868 25.9964C68.5846 26.1854 68.341 26.2798 68.0559 26.2798ZM73.0089 35.1541C72.525 35.1541 72.0891 35.0679 71.7013 34.8956C71.3169 34.7199 71.012 34.4614 70.7866 34.12C70.5645 33.7786 70.4535 33.3577 70.4535 32.8572C70.4535 32.4264 70.533 32.0701 70.6921 31.7884C70.8512 31.5066 71.0683 31.2812 71.3434 31.1122C71.6185 30.9432 71.9284 30.8156 72.2731 30.7294C72.6211 30.6399 72.9807 30.5753 73.3519 30.5355C73.7994 30.4891 74.1623 30.4477 74.4407 30.4112C74.7191 30.3714 74.9213 30.3118 75.0472 30.2322C75.1765 30.1494 75.2411 30.0218 75.2411 29.8494V29.8196C75.2411 29.4451 75.1301 29.1551 74.908 28.9496C74.686 28.7441 74.3661 28.6413 73.9485 28.6413C73.5077 28.6413 73.158 28.7375 72.8995 28.9297C72.6443 29.1219 72.4719 29.349 72.3825 29.6108L70.7021 29.3722C70.8346 28.9081 71.0534 28.5204 71.3583 28.2088C71.6632 27.8939 72.0361 27.6586 72.4769 27.5028C72.9177 27.3438 73.4049 27.2642 73.9386 27.2642C74.3065 27.2642 74.6727 27.3073 75.0373 27.3935C75.4019 27.4796 75.735 27.6222 76.0366 27.821C76.3382 28.0166 76.5801 28.2834 76.7624 28.6214C76.948 28.9595 77.0408 29.3821 77.0408 29.8892V35H75.3107V33.951H75.2511C75.1417 34.1631 74.9876 34.362 74.7887 34.5476C74.5932 34.7299 74.3462 34.8774 74.0479 34.9901C73.753 35.0994 73.4066 35.1541 73.0089 35.1541ZM73.4762 33.8317C73.8375 33.8317 74.1507 33.7604 74.4158 33.6179C74.681 33.4721 74.8848 33.2798 75.0273 33.0412C75.1732 32.8026 75.2461 32.5424 75.2461 32.2607V31.3608C75.1897 31.4072 75.0936 31.4503 74.9577 31.4901C74.8252 31.5298 74.676 31.5646 74.5103 31.5945C74.3446 31.6243 74.1805 31.6508 74.0181 31.674C73.8557 31.6972 73.7148 31.7171 73.5955 31.7337C73.3271 31.7701 73.0868 31.8298 72.8746 31.9126C72.6625 31.9955 72.4951 32.1115 72.3725 32.2607C72.2499 32.4065 72.1886 32.5954 72.1886 32.8274C72.1886 33.1589 72.3095 33.4091 72.5515 33.5781C72.7934 33.7472 73.1017 33.8317 73.4762 33.8317ZM80.9634 33.608L80.8988 34.1548C80.8524 34.5724 80.7695 34.9967 80.6502 35.4276C80.5342 35.8617 80.4116 36.2611 80.2823 36.6257C80.1531 36.9903 80.0487 37.277 79.9691 37.4858H78.756C78.8024 37.2836 78.8654 37.0085 78.945 36.6605C79.0278 36.3125 79.1074 35.9214 79.1836 35.4872C79.2598 35.053 79.3112 34.6122 79.3377 34.1648L79.3725 33.608H80.9634ZM88.0616 24.8182V35H86.2172V24.8182H88.0616ZM98.4261 24.8182V35H96.7855L91.9879 28.0646H91.9034V35H90.0589V24.8182H91.7095L96.5021 31.7585H96.5916V24.8182H98.4261ZM101.743 35H99.7747L103.359 24.8182H105.636L109.226 35H107.257L104.537 26.9062H104.458L101.743 35ZM101.808 31.0078H107.177V32.4893H101.808V31.0078Z" fill="#161A34"/>
<path d="M43.9716 52.2727V61H42.9148V53.3807H42.8636L40.733 54.7955V53.7216L42.9148 52.2727H43.9716ZM49.3281 61.1193C48.6861 61.1193 48.1392 60.9446 47.6875 60.5952C47.2358 60.2429 46.8906 59.733 46.652 59.0653C46.4134 58.3949 46.294 57.5852 46.294 56.6364C46.294 55.6932 46.4134 54.8878 46.652 54.2202C46.8935 53.5497 47.2401 53.0384 47.6918 52.6861C48.1463 52.331 48.6918 52.1534 49.3281 52.1534C49.9645 52.1534 50.5085 52.331 50.9602 52.6861C51.4148 53.0384 51.7614 53.5497 52 54.2202C52.2415 54.8878 52.3622 55.6932 52.3622 56.6364C52.3622 57.5852 52.2429 58.3949 52.0043 59.0653C51.7656 59.733 51.4205 60.2429 50.9688 60.5952C50.517 60.9446 49.9702 61.1193 49.3281 61.1193ZM49.3281 60.1818C49.9645 60.1818 50.4588 59.875 50.8111 59.2614C51.1634 58.6477 51.3395 57.7727 51.3395 56.6364C51.3395 55.8807 51.2585 55.2372 51.0966 54.706C50.9375 54.1747 50.7074 53.7699 50.4062 53.4915C50.108 53.2131 49.7486 53.0739 49.3281 53.0739C48.6974 53.0739 48.2045 53.3849 47.8494 54.0071C47.4943 54.6264 47.3168 55.5028 47.3168 56.6364C47.3168 57.392 47.3963 58.0341 47.5554 58.5625C47.7145 59.0909 47.9432 59.4929 48.2415 59.7685C48.5426 60.044 48.9048 60.1818 49.3281 60.1818ZM56.8281 61.1193C56.1861 61.1193 55.6392 60.9446 55.1875 60.5952C54.7358 60.2429 54.3906 59.733 54.152 59.0653C53.9134 58.3949 53.794 57.5852 53.794 56.6364C53.794 55.6932 53.9134 54.8878 54.152 54.2202C54.3935 53.5497 54.7401 53.0384 55.1918 52.6861C55.6463 52.331 56.1918 52.1534 56.8281 52.1534C57.4645 52.1534 58.0085 52.331 58.4602 52.6861C58.9148 53.0384 59.2614 53.5497 59.5 54.2202C59.7415 54.8878 59.8622 55.6932 59.8622 56.6364C59.8622 57.5852 59.7429 58.3949 59.5043 59.0653C59.2656 59.733 58.9205 60.2429 58.4688 60.5952C58.017 60.9446 57.4702 61.1193 56.8281 61.1193ZM56.8281 60.1818C57.4645 60.1818 57.9588 59.875 58.3111 59.2614C58.6634 58.6477 58.8395 57.7727 58.8395 56.6364C58.8395 55.8807 58.7585 55.2372 58.5966 54.706C58.4375 54.1747 58.2074 53.7699 57.9062 53.4915C57.608 53.2131 57.2486 53.0739 56.8281 53.0739C56.1974 53.0739 55.7045 53.3849 55.3494 54.0071C54.9943 54.6264 54.8168 55.5028 54.8168 56.6364C54.8168 57.392 54.8963 58.0341 55.0554 58.5625C55.2145 59.0909 55.4432 59.4929 55.7415 59.7685C56.0426 60.044 56.4048 60.1818 56.8281 60.1818ZM69.7827 54.4545C69.7315 54.0227 69.5241 53.6875 69.1605 53.4489C68.7969 53.2102 68.3509 53.0909 67.8224 53.0909C67.4361 53.0909 67.098 53.1534 66.8082 53.2784C66.5213 53.4034 66.2969 53.5753 66.1349 53.794C65.9759 54.0128 65.8963 54.2614 65.8963 54.5398C65.8963 54.7727 65.9517 54.973 66.0625 55.1406C66.1761 55.3054 66.321 55.4432 66.4972 55.554C66.6733 55.6619 66.858 55.7514 67.0511 55.8224C67.2443 55.8906 67.4219 55.946 67.5838 55.9886L68.4702 56.2273C68.6974 56.2869 68.9503 56.3693 69.2287 56.4744C69.5099 56.5795 69.7784 56.723 70.0341 56.9048C70.2926 57.0838 70.5057 57.3139 70.6733 57.5952C70.8409 57.8764 70.9247 58.2216 70.9247 58.6307C70.9247 59.1023 70.8011 59.5284 70.554 59.9091C70.3097 60.2898 69.9517 60.5923 69.4801 60.8168C69.0114 61.0412 68.4418 61.1534 67.7713 61.1534C67.1463 61.1534 66.6051 61.0526 66.1477 60.8509C65.6932 60.6491 65.3352 60.3679 65.0739 60.0071C64.8153 59.6463 64.669 59.2273 64.6349 58.75H65.7259C65.7543 59.0795 65.8651 59.3523 66.0582 59.5682C66.2543 59.7812 66.5014 59.9403 66.7997 60.0455C67.1009 60.1477 67.4247 60.1989 67.7713 60.1989C68.1747 60.1989 68.5369 60.1335 68.858 60.0028C69.179 59.8693 69.4332 59.6847 69.6207 59.4489C69.8082 59.2102 69.902 58.9318 69.902 58.6136C69.902 58.3239 69.821 58.0881 69.6591 57.9062C69.4972 57.7244 69.2841 57.5767 69.0199 57.4631C68.7557 57.3494 68.4702 57.25 68.1634 57.1648L67.0895 56.858C66.4077 56.6619 65.8679 56.3821 65.4702 56.0185C65.0724 55.6548 64.8736 55.179 64.8736 54.5909C64.8736 54.1023 65.0057 53.6761 65.2699 53.3125C65.5369 52.946 65.8949 52.6619 66.3438 52.4602C66.7955 52.2557 67.2997 52.1534 67.8565 52.1534C68.419 52.1534 68.919 52.2543 69.3565 52.456C69.794 52.6548 70.1406 52.9276 70.3963 53.2741C70.6548 53.6207 70.7912 54.0142 70.8054 54.4545H69.7827ZM72.5259 61V54.4545H73.4975V55.4773H73.5827C73.7191 55.1278 73.9393 54.8565 74.2433 54.6634C74.5472 54.4673 74.9123 54.3693 75.3384 54.3693C75.7702 54.3693 76.1296 54.4673 76.4165 54.6634C76.7063 54.8565 76.9322 55.1278 77.0941 55.4773H77.1623C77.3299 55.1392 77.5813 54.8707 77.9165 54.6719C78.2518 54.4702 78.6538 54.3693 79.1225 54.3693C79.7077 54.3693 80.1864 54.5526 80.5586 54.919C80.9308 55.2827 81.1168 55.8494 81.1168 56.6193V61H80.1112V56.6193C80.1112 56.1364 79.979 55.7912 79.7148 55.5838C79.4506 55.3764 79.1396 55.2727 78.7816 55.2727C78.3214 55.2727 77.9648 55.4119 77.712 55.6903C77.4592 55.9659 77.3327 56.3153 77.3327 56.7386V61H76.31V56.517C76.31 56.1449 76.1893 55.8452 75.9478 55.6179C75.7063 55.3878 75.3952 55.2727 75.0146 55.2727C74.7532 55.2727 74.5089 55.3423 74.2816 55.4815C74.0572 55.6207 73.8754 55.8139 73.7362 56.0611C73.5998 56.3054 73.5316 56.5881 73.5316 56.9091V61H72.5259ZM82.9556 61V54.4545H83.9613V61H82.9556ZM83.467 53.3636C83.271 53.3636 83.1019 53.2969 82.9599 53.1634C82.8207 53.0298 82.7511 52.8693 82.7511 52.6818C82.7511 52.4943 82.8207 52.3338 82.9599 52.2003C83.1019 52.0668 83.271 52 83.467 52C83.663 52 83.8306 52.0668 83.9698 52.2003C84.1119 52.3338 84.1829 52.4943 84.1829 52.6818C84.1829 52.8693 84.1119 53.0298 83.9698 53.1634C83.8306 53.2969 83.663 53.3636 83.467 53.3636ZM88.6499 54.4545V55.3068H85.2578V54.4545H88.6499ZM86.2464 52.8864H87.2521V59.125C87.2521 59.4091 87.2933 59.6222 87.3757 59.7642C87.4609 59.9034 87.5689 59.9972 87.6996 60.0455C87.8331 60.0909 87.9737 60.1136 88.1214 60.1136C88.2322 60.1136 88.3232 60.108 88.3942 60.0966C88.4652 60.0824 88.522 60.071 88.5646 60.0625L88.7692 60.9659C88.701 60.9915 88.6058 61.017 88.4837 61.0426C88.3615 61.071 88.2067 61.0852 88.0192 61.0852C87.7351 61.0852 87.4567 61.0241 87.1839 60.902C86.9141 60.7798 86.6896 60.5938 86.5107 60.3438C86.3345 60.0938 86.2464 59.7784 86.2464 59.3977V52.8864ZM91.3089 57.0625V61H90.3033V52.2727H91.3089V55.4773H91.3942C91.5476 55.1392 91.7777 54.8707 92.0845 54.6719C92.3942 54.4702 92.8061 54.3693 93.3203 54.3693C93.7663 54.3693 94.157 54.4588 94.4922 54.6378C94.8274 54.8139 95.0874 55.0852 95.272 55.4517C95.4595 55.8153 95.5533 56.2784 95.5533 56.8409V61H94.5476V56.9091C94.5476 56.3892 94.4126 55.9872 94.1428 55.7031C93.8757 55.4162 93.505 55.2727 93.0305 55.2727C92.701 55.2727 92.4055 55.3423 92.1442 55.4815C91.8857 55.6207 91.6811 55.8239 91.5305 56.0909C91.3828 56.358 91.3089 56.6818 91.3089 57.0625ZM105.677 54.4545C105.626 54.0227 105.419 53.6875 105.055 53.4489C104.691 53.2102 104.245 53.0909 103.717 53.0909C103.331 53.0909 102.993 53.1534 102.703 53.2784C102.416 53.4034 102.191 53.5753 102.029 53.794C101.87 54.0128 101.791 54.2614 101.791 54.5398C101.791 54.7727 101.846 54.973 101.957 55.1406C102.071 55.3054 102.216 55.4432 102.392 55.554C102.568 55.6619 102.752 55.7514 102.946 55.8224C103.139 55.8906 103.316 55.946 103.478 55.9886L104.365 56.2273C104.592 56.2869 104.845 56.3693 105.123 56.4744C105.404 56.5795 105.673 56.723 105.929 56.9048C106.187 57.0838 106.4 57.3139 106.568 57.5952C106.735 57.8764 106.819 58.2216 106.819 58.6307C106.819 59.1023 106.696 59.5284 106.449 59.9091C106.204 60.2898 105.846 60.5923 105.375 60.8168C104.906 61.0412 104.336 61.1534 103.666 61.1534C103.041 61.1534 102.5 61.0526 102.042 60.8509C101.588 60.6491 101.23 60.3679 100.968 60.0071C100.71 59.6463 100.564 59.2273 100.529 58.75H101.62C101.649 59.0795 101.76 59.3523 101.953 59.5682C102.149 59.7812 102.396 59.9403 102.694 60.0455C102.995 60.1477 103.319 60.1989 103.666 60.1989C104.069 60.1989 104.431 60.1335 104.752 60.0028C105.074 59.8693 105.328 59.6847 105.515 59.4489C105.703 59.2102 105.797 58.9318 105.797 58.6136C105.797 58.3239 105.716 58.0881 105.554 57.9062C105.392 57.7244 105.179 57.5767 104.914 57.4631C104.65 57.3494 104.365 57.25 104.058 57.1648L102.984 56.858C102.302 56.6619 101.762 56.3821 101.365 56.0185C100.967 55.6548 100.768 55.179 100.768 54.5909C100.768 54.1023 100.9 53.6761 101.164 53.3125C101.431 52.946 101.789 52.6619 102.238 52.4602C102.69 52.2557 103.194 52.1534 103.751 52.1534C104.314 52.1534 104.814 52.2543 105.251 52.456C105.689 52.6548 106.035 52.9276 106.291 53.2741C106.549 53.6207 106.686 54.0142 106.7 54.4545H105.677ZM111.267 54.4545V55.3068H107.875V54.4545H111.267ZM108.864 52.8864H109.869V59.125C109.869 59.4091 109.911 59.6222 109.993 59.7642C110.078 59.9034 110.186 59.9972 110.317 60.0455C110.45 60.0909 110.591 60.1136 110.739 60.1136C110.849 60.1136 110.94 60.108 111.011 60.0966C111.082 60.0824 111.139 60.071 111.182 60.0625L111.386 60.9659C111.318 60.9915 111.223 61.017 111.101 61.0426C110.979 61.071 110.824 61.0852 110.636 61.0852C110.352 61.0852 110.074 61.0241 109.801 60.902C109.531 60.7798 109.307 60.5938 109.128 60.3438C108.952 60.0938 108.864 59.7784 108.864 59.3977V52.8864ZM112.78 61V54.4545H113.751V55.4432H113.82C113.939 55.1193 114.155 54.8565 114.467 54.6548C114.78 54.4531 115.132 54.3523 115.524 54.3523C115.598 54.3523 115.69 54.3537 115.801 54.3565C115.912 54.3594 115.996 54.3636 116.053 54.3693V55.392C116.018 55.3835 115.94 55.3707 115.818 55.3537C115.699 55.3338 115.572 55.3239 115.439 55.3239C115.121 55.3239 114.837 55.3906 114.587 55.5241C114.339 55.6548 114.143 55.8366 113.999 56.0696C113.857 56.2997 113.786 56.5625 113.786 56.858V61H112.78ZM119.79 61.1364C119.159 61.1364 118.615 60.9972 118.158 60.7188C117.703 60.4375 117.352 60.0455 117.105 59.5426C116.861 59.0369 116.739 58.4489 116.739 57.7784C116.739 57.108 116.861 56.517 117.105 56.0057C117.352 55.4915 117.696 55.0909 118.136 54.804C118.58 54.5142 119.097 54.3693 119.688 54.3693C120.028 54.3693 120.365 54.4261 120.697 54.5398C121.03 54.6534 121.332 54.8381 121.605 55.0938C121.878 55.3466 122.095 55.6818 122.257 56.0994C122.419 56.517 122.5 57.0312 122.5 57.642V58.0682H117.455V57.1989H121.477C121.477 56.8295 121.403 56.5 121.256 56.2102C121.111 55.9205 120.903 55.6918 120.634 55.5241C120.366 55.3565 120.051 55.2727 119.688 55.2727C119.287 55.2727 118.94 55.3722 118.648 55.571C118.358 55.767 118.135 56.0227 117.979 56.3381C117.822 56.6534 117.744 56.9915 117.744 57.3523V57.9318C117.744 58.4261 117.83 58.8452 118 59.1889C118.173 59.5298 118.413 59.7898 118.72 59.9688C119.027 60.1449 119.384 60.233 119.79 60.233C120.054 60.233 120.293 60.196 120.506 60.1222C120.722 60.0455 120.908 59.9318 121.064 59.7812C121.22 59.6278 121.341 59.4375 121.426 59.2102L122.398 59.483C122.295 59.8125 122.124 60.1023 121.882 60.3523C121.641 60.5994 121.342 60.7926 120.987 60.9318C120.632 61.0682 120.233 61.1364 119.79 61.1364ZM126.774 61.1364C126.143 61.1364 125.599 60.9972 125.142 60.7188C124.688 60.4375 124.337 60.0455 124.089 59.5426C123.845 59.0369 123.723 58.4489 123.723 57.7784C123.723 57.108 123.845 56.517 124.089 56.0057C124.337 55.4915 124.68 55.0909 125.121 54.804C125.564 54.5142 126.081 54.3693 126.672 54.3693C127.013 54.3693 127.349 54.4261 127.682 54.5398C128.014 54.6534 128.317 54.8381 128.589 55.0938C128.862 55.3466 129.08 55.6818 129.241 56.0994C129.403 56.517 129.484 57.0312 129.484 57.642V58.0682H124.439V57.1989H128.462C128.462 56.8295 128.388 56.5 128.24 56.2102C128.095 55.9205 127.888 55.6918 127.618 55.5241C127.351 55.3565 127.036 55.2727 126.672 55.2727C126.271 55.2727 125.925 55.3722 125.632 55.571C125.342 55.767 125.119 56.0227 124.963 56.3381C124.807 56.6534 124.729 56.9915 124.729 57.3523V57.9318C124.729 58.4261 124.814 58.8452 124.984 59.1889C125.158 59.5298 125.398 59.7898 125.705 59.9688C126.011 60.1449 126.368 60.233 126.774 60.233C127.038 60.233 127.277 60.196 127.49 60.1222C127.706 60.0455 127.892 59.9318 128.048 59.7812C128.205 59.6278 128.325 59.4375 128.411 59.2102L129.382 59.483C129.28 59.8125 129.108 60.1023 128.866 60.3523C128.625 60.5994 128.327 60.7926 127.972 60.9318C127.616 61.0682 127.217 61.1364 126.774 61.1364ZM133.861 54.4545V55.3068H130.469V54.4545H133.861ZM131.457 52.8864H132.463V59.125C132.463 59.4091 132.504 59.6222 132.587 59.7642C132.672 59.9034 132.78 59.9972 132.911 60.0455C133.044 60.0909 133.185 60.1136 133.332 60.1136C133.443 60.1136 133.534 60.108 133.605 60.0966C133.676 60.0824 133.733 60.071 133.776 60.0625L133.98 60.9659C133.912 60.9915 133.817 61.017 133.695 61.0426C133.572 61.071 133.418 61.0852 133.23 61.0852C132.946 61.0852 132.668 61.0241 132.395 60.902C132.125 60.7798 131.901 60.5938 131.722 60.3438C131.545 60.0938 131.457 59.7784 131.457 59.3977V52.8864ZM48.0795 73H47.0227C46.9602 72.696 46.8509 72.429 46.6946 72.1989C46.5412 71.9688 46.3537 71.7756 46.1321 71.6193C45.9134 71.4602 45.6705 71.3409 45.4034 71.2614C45.1364 71.1818 44.858 71.142 44.5682 71.142C44.0398 71.142 43.5611 71.2756 43.1321 71.5426C42.706 71.8097 42.3665 72.2031 42.1136 72.723C41.8636 73.2429 41.7386 73.8807 41.7386 74.6364C41.7386 75.392 41.8636 76.0298 42.1136 76.5497C42.3665 77.0696 42.706 77.4631 43.1321 77.7301C43.5611 77.9972 44.0398 78.1307 44.5682 78.1307C44.858 78.1307 45.1364 78.0909 45.4034 78.0114C45.6705 77.9318 45.9134 77.8139 46.1321 77.6577C46.3537 77.4986 46.5412 77.304 46.6946 77.0739C46.8509 76.8409 46.9602 76.5739 47.0227 76.2727H48.0795C48 76.7187 47.8551 77.1179 47.6449 77.4702C47.4347 77.8224 47.1733 78.1222 46.8608 78.3693C46.5483 78.6136 46.1974 78.7997 45.8082 78.9276C45.4219 79.0554 45.0085 79.1193 44.5682 79.1193C43.8239 79.1193 43.1619 78.9375 42.5824 78.5739C42.0028 78.2102 41.5469 77.6932 41.2145 77.0227C40.8821 76.3523 40.7159 75.5568 40.7159 74.6364C40.7159 73.7159 40.8821 72.9205 41.2145 72.25C41.5469 71.5795 42.0028 71.0625 42.5824 70.6989C43.1619 70.3352 43.8239 70.1534 44.5682 70.1534C45.0085 70.1534 45.4219 70.2173 45.8082 70.3452C46.1974 70.473 46.5483 70.6605 46.8608 70.9077C47.1733 71.152 47.4347 71.4503 47.6449 71.8026C47.8551 72.152 48 72.5511 48.0795 73ZM52.31 79.1364C51.7191 79.1364 51.2006 78.9957 50.7546 78.7145C50.3114 78.4332 49.9648 78.0398 49.7148 77.5341C49.4677 77.0284 49.3441 76.4375 49.3441 75.7614C49.3441 75.0795 49.4677 74.4844 49.7148 73.9759C49.9648 73.4673 50.3114 73.0724 50.7546 72.7912C51.2006 72.5099 51.7191 72.3693 52.31 72.3693C52.9009 72.3693 53.418 72.5099 53.8612 72.7912C54.3072 73.0724 54.6538 73.4673 54.9009 73.9759C55.1509 74.4844 55.2759 75.0795 55.2759 75.7614C55.2759 76.4375 55.1509 77.0284 54.9009 77.5341C54.6538 78.0398 54.3072 78.4332 53.8612 78.7145C53.418 78.9957 52.9009 79.1364 52.31 79.1364ZM52.31 78.233C52.7589 78.233 53.1282 78.1179 53.418 77.8878C53.7077 77.6577 53.9222 77.3551 54.0614 76.9801C54.2006 76.6051 54.2702 76.1989 54.2702 75.7614C54.2702 75.3239 54.2006 74.9162 54.0614 74.5384C53.9222 74.1605 53.7077 73.8551 53.418 73.6222C53.1282 73.3892 52.7589 73.2727 52.31 73.2727C51.8612 73.2727 51.4918 73.3892 51.2021 73.6222C50.9123 73.8551 50.6978 74.1605 50.5586 74.5384C50.4194 74.9162 50.3498 75.3239 50.3498 75.7614C50.3498 76.1989 50.4194 76.6051 50.5586 76.9801C50.6978 77.3551 50.9123 77.6577 51.2021 77.8878C51.4918 78.1179 51.8612 78.233 52.31 78.233ZM57.8168 70.2727V79H56.8111V70.2727H57.8168ZM60.6644 70.2727V79H59.6587V70.2727H60.6644ZM62.5064 79V72.4545H63.5121V79H62.5064ZM63.0178 71.3636C62.8217 71.3636 62.6527 71.2969 62.5107 71.1634C62.3714 71.0298 62.3018 70.8693 62.3018 70.6818C62.3018 70.4943 62.3714 70.3338 62.5107 70.2003C62.6527 70.0668 62.8217 70 63.0178 70C63.2138 70 63.3814 70.0668 63.5206 70.2003C63.6626 70.3338 63.7337 70.4943 63.7337 70.6818C63.7337 70.8693 63.6626 71.0298 63.5206 71.1634C63.3814 71.2969 63.2138 71.3636 63.0178 71.3636ZM66.3597 75.0625V79H65.354V72.4545H66.3256V73.4773H66.4109C66.5643 73.1449 66.7972 72.8778 67.1097 72.6761C67.4222 72.4716 67.8256 72.3693 68.32 72.3693C68.7631 72.3693 69.1509 72.4602 69.4833 72.642C69.8157 72.821 70.0742 73.0938 70.2589 73.4602C70.4435 73.8239 70.5359 74.2841 70.5359 74.8409V79H69.5302V74.9091C69.5302 74.3949 69.3967 73.9943 69.1296 73.7074C68.8626 73.4176 68.4961 73.2727 68.0302 73.2727C67.7092 73.2727 67.4222 73.3423 67.1694 73.4815C66.9194 73.6207 66.7219 73.8239 66.5771 74.0909C66.4322 74.358 66.3597 74.6818 66.3597 75.0625ZM75.0156 81.5909C74.5298 81.5909 74.1122 81.5284 73.7628 81.4034C73.4134 81.2812 73.1222 81.1193 72.8892 80.9176C72.6591 80.7188 72.4759 80.5057 72.3395 80.2784L73.1406 79.7159C73.2315 79.8352 73.3466 79.9716 73.4858 80.125C73.625 80.2812 73.8153 80.4162 74.0568 80.5298C74.3011 80.6463 74.6207 80.7045 75.0156 80.7045C75.544 80.7045 75.9801 80.5767 76.3239 80.321C76.6676 80.0653 76.8395 79.6648 76.8395 79.1193V77.7898H76.7543C76.6804 77.9091 76.5753 78.0568 76.4389 78.233C76.3054 78.4062 76.1122 78.5611 75.8594 78.6974C75.6094 78.831 75.2713 78.8977 74.8452 78.8977C74.3168 78.8977 73.8423 78.7727 73.4219 78.5227C73.0043 78.2727 72.6733 77.9091 72.429 77.4318C72.1875 76.9545 72.0668 76.375 72.0668 75.6932C72.0668 75.0227 72.1847 74.4389 72.4205 73.9418C72.6563 73.4418 72.9844 73.0554 73.4048 72.7827C73.8253 72.5071 74.3111 72.3693 74.8622 72.3693C75.2884 72.3693 75.6264 72.4403 75.8764 72.5824C76.1293 72.7216 76.3224 72.8807 76.456 73.0597C76.5923 73.2358 76.6974 73.3807 76.7713 73.4943H76.8736V72.4545H77.8452V79.1875C77.8452 79.75 77.7173 80.2074 77.4616 80.5597C77.2088 80.9148 76.8679 81.1747 76.4389 81.3395C76.0128 81.5071 75.5384 81.5909 75.0156 81.5909ZM74.9815 77.9943C75.3849 77.9943 75.7259 77.902 76.0043 77.7173C76.2827 77.5327 76.4943 77.267 76.6392 76.9205C76.7841 76.5739 76.8565 76.1591 76.8565 75.6761C76.8565 75.2045 76.7855 74.7884 76.6435 74.4276C76.5014 74.0668 76.2912 73.7841 76.0128 73.5795C75.7344 73.375 75.3906 73.2727 74.9815 73.2727C74.5554 73.2727 74.2003 73.3807 73.9162 73.5966C73.6349 73.8125 73.4233 74.1023 73.2812 74.4659C73.142 74.8295 73.0724 75.233 73.0724 75.6761C73.0724 76.1307 73.1435 76.5327 73.2855 76.8821C73.4304 77.2287 73.6435 77.5014 73.9247 77.7003C74.2088 77.8963 74.5611 77.9943 74.9815 77.9943ZM81.169 79L79.1747 72.4545H80.2315L81.6463 77.4659H81.7145L83.1122 72.4545H84.1861L85.5668 77.4489H85.6349L87.0497 72.4545H88.1065L86.1122 79H85.1236L83.6918 73.9716H83.5895L82.1577 79H81.169ZM91.8725 79.1364C91.2816 79.1364 90.7631 78.9957 90.3171 78.7145C89.8739 78.4332 89.5273 78.0398 89.2773 77.5341C89.0302 77.0284 88.9066 76.4375 88.9066 75.7614C88.9066 75.0795 89.0302 74.4844 89.2773 73.9759C89.5273 73.4673 89.8739 73.0724 90.3171 72.7912C90.7631 72.5099 91.2816 72.3693 91.8725 72.3693C92.4634 72.3693 92.9805 72.5099 93.4237 72.7912C93.8697 73.0724 94.2163 73.4673 94.4634 73.9759C94.7134 74.4844 94.8384 75.0795 94.8384 75.7614C94.8384 76.4375 94.7134 77.0284 94.4634 77.5341C94.2163 78.0398 93.8697 78.4332 93.4237 78.7145C92.9805 78.9957 92.4634 79.1364 91.8725 79.1364ZM91.8725 78.233C92.3214 78.233 92.6907 78.1179 92.9805 77.8878C93.2702 77.6577 93.4847 77.3551 93.6239 76.9801C93.7631 76.6051 93.8327 76.1989 93.8327 75.7614C93.8327 75.3239 93.7631 74.9162 93.6239 74.5384C93.4847 74.1605 93.2702 73.8551 92.9805 73.6222C92.6907 73.3892 92.3214 73.2727 91.8725 73.2727C91.4237 73.2727 91.0543 73.3892 90.7646 73.6222C90.4748 73.8551 90.2603 74.1605 90.1211 74.5384C89.9819 74.9162 89.9123 75.3239 89.9123 75.7614C89.9123 76.1989 89.9819 76.6051 90.1211 76.9801C90.2603 77.3551 90.4748 77.6577 90.7646 77.8878C91.0543 78.1179 91.4237 78.233 91.8725 78.233ZM99.0327 79.1364C98.4418 79.1364 97.9233 78.9957 97.4773 78.7145C97.0341 78.4332 96.6875 78.0398 96.4375 77.5341C96.1903 77.0284 96.0668 76.4375 96.0668 75.7614C96.0668 75.0795 96.1903 74.4844 96.4375 73.9759C96.6875 73.4673 97.0341 73.0724 97.4773 72.7912C97.9233 72.5099 98.4418 72.3693 99.0327 72.3693C99.6236 72.3693 100.141 72.5099 100.584 72.7912C101.03 73.0724 101.376 73.4673 101.624 73.9759C101.874 74.4844 101.999 75.0795 101.999 75.7614C101.999 76.4375 101.874 77.0284 101.624 77.5341C101.376 78.0398 101.03 78.4332 100.584 78.7145C100.141 78.9957 99.6236 79.1364 99.0327 79.1364ZM99.0327 78.233C99.4815 78.233 99.8509 78.1179 100.141 77.8878C100.43 77.6577 100.645 77.3551 100.784 76.9801C100.923 76.6051 100.993 76.1989 100.993 75.7614C100.993 75.3239 100.923 74.9162 100.784 74.5384C100.645 74.1605 100.43 73.8551 100.141 73.6222C99.8509 73.3892 99.4815 73.2727 99.0327 73.2727C98.5838 73.2727 98.2145 73.3892 97.9247 73.6222C97.6349 73.8551 97.4205 74.1605 97.2812 74.5384C97.142 74.9162 97.0724 75.3239 97.0724 75.7614C97.0724 76.1989 97.142 76.6051 97.2812 76.9801C97.4205 77.3551 97.6349 77.6577 97.9247 77.8878C98.2145 78.1179 98.5838 78.233 99.0327 78.233ZM106.005 79.1364C105.46 79.1364 104.978 78.9986 104.561 78.723C104.143 78.4446 103.816 78.0526 103.581 77.5469C103.345 77.0384 103.227 76.4375 103.227 75.7443C103.227 75.0568 103.345 74.4602 103.581 73.9545C103.816 73.4489 104.145 73.0582 104.565 72.7827C104.985 72.5071 105.471 72.3693 106.022 72.3693C106.449 72.3693 106.785 72.4403 107.032 72.5824C107.282 72.7216 107.473 72.8807 107.603 73.0597C107.737 73.2358 107.841 73.3807 107.914 73.4943H108V70.2727H109.005V79H108.034V77.9943H107.914C107.841 78.1136 107.735 78.2642 107.599 78.446C107.463 78.625 107.268 78.7855 107.015 78.9276C106.762 79.0668 106.426 79.1364 106.005 79.1364ZM106.142 78.233C106.545 78.233 106.886 78.1278 107.164 77.9176C107.443 77.7045 107.654 77.4105 107.799 77.0355C107.944 76.6577 108.017 76.2216 108.017 75.7273C108.017 75.2386 107.946 74.8111 107.804 74.4446C107.662 74.0753 107.451 73.7884 107.173 73.5838C106.895 73.3764 106.551 73.2727 106.142 73.2727C105.716 73.2727 105.36 73.3821 105.076 73.6009C104.795 73.8168 104.583 74.1108 104.441 74.483C104.302 74.8523 104.233 75.267 104.233 75.7273C104.233 76.1932 104.304 76.6165 104.446 76.9972C104.591 77.375 104.804 77.6761 105.085 77.9006C105.369 78.1222 105.721 78.233 106.142 78.233ZM114.856 70.2727L117.447 77.6193H117.549L120.14 70.2727H121.248L118.044 79H116.953L113.748 70.2727H114.856ZM123.664 70.2727V79H122.608V70.2727H123.664ZM132.806 73H131.749C131.687 72.696 131.577 72.429 131.421 72.1989C131.268 71.9688 131.08 71.7756 130.859 71.6193C130.64 71.4602 130.397 71.3409 130.13 71.2614C129.863 71.1818 129.585 71.142 129.295 71.142C128.766 71.142 128.288 71.2756 127.859 71.5426C127.433 71.8097 127.093 72.2031 126.84 72.723C126.59 73.2429 126.465 73.8807 126.465 74.6364C126.465 75.392 126.59 76.0298 126.84 76.5497C127.093 77.0696 127.433 77.4631 127.859 77.7301C128.288 77.9972 128.766 78.1307 129.295 78.1307C129.585 78.1307 129.863 78.0909 130.13 78.0114C130.397 77.9318 130.64 77.8139 130.859 77.6577C131.08 77.4986 131.268 77.304 131.421 77.0739C131.577 76.8409 131.687 76.5739 131.749 76.2727H132.806C132.727 76.7187 132.582 77.1179 132.371 77.4702C132.161 77.8224 131.9 78.1222 131.587 78.3693C131.275 78.6136 130.924 78.7997 130.535 78.9276C130.148 79.0554 129.735 79.1193 129.295 79.1193C128.55 79.1193 127.888 78.9375 127.309 78.5739C126.729 78.2102 126.273 77.6932 125.941 77.0227C125.609 76.3523 125.442 75.5568 125.442 74.6364C125.442 73.7159 125.609 72.9205 125.941 72.25C126.273 71.5795 126.729 71.0625 127.309 70.6989C127.888 70.3352 128.55 70.1534 129.295 70.1534C129.735 70.1534 130.148 70.2173 130.535 70.3452C130.924 70.473 131.275 70.6605 131.587 70.9077C131.9 71.152 132.161 71.4503 132.371 71.8026C132.582 72.152 132.727 72.5511 132.806 73ZM140.684 79.1193C140.122 79.1193 139.62 79.0227 139.18 78.8295C138.743 78.6364 138.395 78.3679 138.136 78.0241C137.88 77.6776 137.741 77.2756 137.718 76.8182H138.792C138.815 77.0994 138.912 77.3423 139.082 77.5469C139.252 77.7486 139.475 77.9048 139.751 78.0156C140.027 78.1264 140.332 78.1818 140.667 78.1818C141.042 78.1818 141.375 78.1165 141.664 77.9858C141.954 77.8551 142.181 77.6733 142.346 77.4403C142.511 77.2074 142.593 76.9375 142.593 76.6307C142.593 76.3097 142.514 76.027 142.355 75.7827C142.196 75.5355 141.963 75.3423 141.656 75.2031C141.349 75.0639 140.974 74.9943 140.531 74.9943H139.832V74.0568H140.531C140.877 74.0568 141.181 73.9943 141.443 73.8693C141.707 73.7443 141.913 73.5682 142.061 73.3409C142.211 73.1136 142.287 72.8466 142.287 72.5398C142.287 72.2443 142.221 71.9872 142.091 71.7685C141.96 71.5497 141.775 71.3793 141.537 71.2571C141.301 71.1349 141.022 71.0739 140.701 71.0739C140.4 71.0739 140.116 71.1293 139.849 71.2401C139.585 71.348 139.369 71.5057 139.201 71.7131C139.034 71.9176 138.943 72.1648 138.929 72.4545H137.906C137.923 71.9972 138.061 71.5966 138.319 71.2528C138.578 70.9062 138.916 70.6364 139.333 70.4432C139.754 70.25 140.216 70.1534 140.718 70.1534C141.258 70.1534 141.721 70.2628 142.108 70.4815C142.494 70.6974 142.791 70.983 142.998 71.3381C143.206 71.6932 143.309 72.0767 143.309 72.4886C143.309 72.9801 143.18 73.3991 142.922 73.7457C142.666 74.0923 142.318 74.3324 141.877 74.4659V74.5341C142.429 74.625 142.859 74.8594 143.169 75.2372C143.478 75.6122 143.633 76.0767 143.633 76.6307C143.633 77.1051 143.504 77.5312 143.245 77.9091C142.99 78.2841 142.64 78.5795 142.197 78.7955C141.754 79.0114 141.25 79.1193 140.684 79.1193ZM148.223 79.1193C147.581 79.1193 147.034 78.9446 146.582 78.5952C146.13 78.2429 145.785 77.733 145.547 77.0653C145.308 76.3949 145.189 75.5852 145.189 74.6364C145.189 73.6932 145.308 72.8878 145.547 72.2202C145.788 71.5497 146.135 71.0384 146.586 70.6861C147.041 70.331 147.586 70.1534 148.223 70.1534C148.859 70.1534 149.403 70.331 149.855 70.6861C150.309 71.0384 150.656 71.5497 150.895 72.2202C151.136 72.8878 151.257 73.6932 151.257 74.6364C151.257 75.5852 151.137 76.3949 150.899 77.0653C150.66 77.733 150.315 78.2429 149.863 78.5952C149.412 78.9446 148.865 79.1193 148.223 79.1193ZM148.223 78.1818C148.859 78.1818 149.353 77.875 149.706 77.2614C150.058 76.6477 150.234 75.7727 150.234 74.6364C150.234 73.8807 150.153 73.2372 149.991 72.706C149.832 72.1747 149.602 71.7699 149.301 71.4915C149.002 71.2131 148.643 71.0739 148.223 71.0739C147.592 71.0739 147.099 71.3849 146.744 72.0071C146.389 72.6264 146.211 73.5028 146.211 74.6364C146.211 75.392 146.291 76.0341 146.45 76.5625C146.609 77.0909 146.838 77.4929 147.136 77.7685C147.437 78.044 147.799 78.1818 148.223 78.1818ZM155.774 79.1193C155.416 79.1136 155.058 79.0455 154.7 78.9148C154.342 78.7841 154.015 78.5639 153.72 78.2543C153.424 77.9418 153.187 77.5199 153.008 76.9886C152.829 76.4545 152.74 75.7841 152.74 74.9773C152.74 74.2045 152.812 73.5199 152.957 72.9233C153.102 72.3239 153.312 71.8196 153.588 71.4105C153.863 70.9986 154.196 70.6861 154.585 70.473C154.977 70.2599 155.419 70.1534 155.91 70.1534C156.399 70.1534 156.833 70.2514 157.214 70.4474C157.598 70.6406 157.91 70.9105 158.152 71.2571C158.393 71.6037 158.549 72.0028 158.62 72.4545H157.581C157.484 72.0625 157.297 71.7372 157.018 71.4787C156.74 71.2202 156.37 71.0909 155.91 71.0909C155.234 71.0909 154.701 71.3849 154.312 71.973C153.926 72.5611 153.731 73.3864 153.728 74.4489H153.797C153.956 74.2074 154.145 74.0014 154.363 73.831C154.585 73.6577 154.829 73.5241 155.096 73.4304C155.363 73.3366 155.646 73.2898 155.944 73.2898C156.444 73.2898 156.902 73.4148 157.316 73.6648C157.731 73.9119 158.064 74.2543 158.314 74.6918C158.564 75.1264 158.689 75.625 158.689 76.1875C158.689 76.7273 158.568 77.2216 158.326 77.6705C158.085 78.1165 157.745 78.4716 157.308 78.7358C156.873 78.9972 156.362 79.125 155.774 79.1193ZM155.774 78.1818C156.132 78.1818 156.453 78.0923 156.737 77.9134C157.024 77.7344 157.25 77.4943 157.414 77.1932C157.582 76.892 157.666 76.5568 157.666 76.1875C157.666 75.8267 157.585 75.4986 157.423 75.2031C157.264 74.9048 157.044 74.6676 156.762 74.4915C156.484 74.3153 156.166 74.2273 155.808 74.2273C155.538 74.2273 155.287 74.2812 155.054 74.3892C154.821 74.4943 154.616 74.6392 154.44 74.8239C154.267 75.0085 154.13 75.2202 154.031 75.4588C153.931 75.6946 153.882 75.9432 153.882 76.2045C153.882 76.5511 153.963 76.875 154.125 77.1761C154.289 77.4773 154.514 77.7202 154.798 77.9048C155.085 78.0895 155.41 78.1818 155.774 78.1818ZM163.262 79.1193C162.904 79.1136 162.546 79.0455 162.188 78.9148C161.83 78.7841 161.504 78.5639 161.208 78.2543C160.913 77.9418 160.675 77.5199 160.496 76.9886C160.317 76.4545 160.228 75.7841 160.228 74.9773C160.228 74.2045 160.3 73.5199 160.445 72.9233C160.59 72.3239 160.8 71.8196 161.076 71.4105C161.352 70.9986 161.684 70.6861 162.073 70.473C162.465 70.2599 162.907 70.1534 163.398 70.1534C163.887 70.1534 164.322 70.2514 164.702 70.4474C165.086 70.6406 165.398 70.9105 165.64 71.2571C165.881 71.6037 166.038 72.0028 166.109 72.4545H165.069C164.972 72.0625 164.785 71.7372 164.506 71.4787C164.228 71.2202 163.859 71.0909 163.398 71.0909C162.722 71.0909 162.19 71.3849 161.8 71.973C161.414 72.5611 161.219 73.3864 161.217 74.4489H161.285C161.444 74.2074 161.633 74.0014 161.852 73.831C162.073 73.6577 162.317 73.5241 162.585 73.4304C162.852 73.3366 163.134 73.2898 163.433 73.2898C163.933 73.2898 164.39 73.4148 164.805 73.6648C165.219 73.9119 165.552 74.2543 165.802 74.6918C166.052 75.1264 166.177 75.625 166.177 76.1875C166.177 76.7273 166.056 77.2216 165.815 77.6705C165.573 78.1165 165.234 78.4716 164.796 78.7358C164.362 78.9972 163.85 79.125 163.262 79.1193ZM163.262 78.1818C163.62 78.1818 163.941 78.0923 164.225 77.9134C164.512 77.7344 164.738 77.4943 164.903 77.1932C165.07 76.892 165.154 76.5568 165.154 76.1875C165.154 75.8267 165.073 75.4986 164.911 75.2031C164.752 74.9048 164.532 74.6676 164.251 74.4915C163.972 74.3153 163.654 74.2273 163.296 74.2273C163.026 74.2273 162.775 74.2812 162.542 74.3892C162.309 74.4943 162.104 74.6392 161.928 74.8239C161.755 75.0085 161.619 75.2202 161.519 75.4588C161.42 75.6946 161.37 75.9432 161.37 76.2045C161.37 76.5511 161.451 76.875 161.613 77.1761C161.778 77.4773 162.002 77.7202 162.286 77.9048C162.573 78.0895 162.898 78.1818 163.262 78.1818ZM171.739 79H170.631L173.836 70.2727H174.926L178.131 79H177.023L174.415 71.6534H174.347L171.739 79ZM172.148 75.5909H176.614V76.5284H172.148V75.5909ZM185.218 70.2727H186.275V76.0511C186.275 76.6477 186.134 77.1804 185.853 77.6491C185.574 78.1151 185.181 78.483 184.672 78.7528C184.164 79.0199 183.567 79.1534 182.882 79.1534C182.198 79.1534 181.601 79.0199 181.093 78.7528C180.584 78.483 180.189 78.1151 179.908 77.6491C179.63 77.1804 179.49 76.6477 179.49 76.0511V70.2727H180.547V75.9659C180.547 76.392 180.641 76.7713 180.828 77.1037C181.016 77.4332 181.283 77.6932 181.63 77.8835C181.979 78.071 182.397 78.1648 182.882 78.1648C183.368 78.1648 183.786 78.071 184.135 77.8835C184.485 77.6932 184.752 77.4332 184.936 77.1037C185.124 76.7713 185.218 76.392 185.218 75.9659V70.2727Z" fill="#7E8492"/>
</g>
<defs>
<filter id="filter0_d_1_3787" x="0" y="0" width="228" height="136" filterUnits="userSpaceOnUse" color-interpolation-filters="sRGB">
<feFlood flood-opacity="0" result="BackgroundImageFix"/>
<feColorMatrix in="SourceAlpha" type="matrix" values="0 0 0 0 0 0 0 0 0 0 0 0 0 0 0 0 0 0 127 0" result="hardAlpha"/>
<feOffset dy="16"/>
<feGaussianBlur stdDeviation="12"/>
<feComposite in2="hardAlpha" operator="out"/>
<feColorMatrix type="matrix" values="0 0 0 0 0.117647 0 0 0 0 0.117647 0 0 0 0 0.117647 0 0 0 0.08 0"/>
<feBlend mode="normal" in2="BackgroundImageFix" result="effect1_dropShadow_1_3787"/>
<feBlend mode="normal" in="SourceGraphic" in2="effect1_dropShadow_1_3787" result="shape"/>
</filter>
</defs>
</svg>
